Wengdings3.glyphspackage
{
glyphname = a2left;
layers = (
{
layerId = m01;
shapes = (
{
closed = 1;
nodes = (
(577,664,l),
(1639,664,l),
(1639,820,l),
(577,820,l),
(577,1087,l),
(174,742,l),
(577,397,l),
(577,397,l)
);
}
);
userData = {
assembly = "NPUSHB[ ]	/* 16 values pushed */
0 6 1 124 2 254 5 124 6 2 6 6 2 4 91 0
MDAP[1]	/* MoveDirectAbsPt */
MIRP[01101]	/* MoveIndirectRelPt */
IP[ ]	/* InterpolatePts */
IP[ ]	/* InterpolatePts */
MDAP[1]	/* MoveDirectAbsPt */
MDAP[1]	/* MoveDirectAbsPt */
SVTCA[0]	/* SetFreedomAndProjectionVectorToAxis */
MDAP[1]	/* MoveDirectAbsPt */
MIRP[10100]	/* MoveIndirectRelPt */
MIRP[11101]	/* MoveIndirectRelPt */
MIRP[00100]	/* MoveIndirectRelPt */
SRP1[ ]	/* SetRefPoint1 */
IP[ ]	/* InterpolatePts */
IUP[1]	/* InterpolateUntPts */
IUP[0]	/* InterpolateUntPts */";
};
width = 1825;
}
);
note = a2left;
unicode = 33;
}
{
glyphname = a2nw;
layers = (
{
layerId = m01;
shapes = (
{
closed = 1;
nodes = (
(1274,341,l),
(513,1102,l),
(701,1291,l),
(173,1332,l),
(214,803,l),
(402,992,l),
(1163,231,l),
(1163,231,l)
);
}
);
userData = {
assembly = "NPUSHB[ ]	/* 26 values pushed */
3 2 2 255 5 4 20 5 5 4 2 3 5 6 4 0 126 4 1 2 4 5 4 3 220 6
MDAP[1]	/* MoveDirectAbsPt */
MIRP[00100]	/* MoveIndirectRelPt */
SLOOP[ ]	/* SetLoopVariable */
IP[ ]	/* InterpolatePts */
SVTCA[0]	/* SetFreedomAndProjectionVectorToAxis */
MDAP[1]	/* MoveDirectAbsPt */
MIRP[01101]	/* MoveIndirectRelPt */
SLOOP[ ]	/* SetLoopVariable */
IP[ ]	/* InterpolatePts */
IUP[1]	/* InterpolateUntPts */
IUP[0]	/* InterpolateUntPts */
SDPVTL[1]	/* SetDualPVectorToLine */
SFVTPV[ ]	/* SetFVectorToPVector */
MDAP[0]	/* MoveDirectAbsPt */
CALL[ ]	/* CallFunction */
SFVTPV[ ]	/* SetFVectorToPVector */
RDTG[ ]	/* RoundDownToGrid */
SRP0[ ]	/* SetRefPoint0 */
MDRP[00100]	/* MoveDirectRelPt */";
};
width = 1444;
}
);
note = a2nw;
unicode = 37;
}
{
glyphname = a2sw;
layers = (
{
layerId = m01;
shapes = (
{
closed = 1;
nodes = (
(512,378,l),
(1273,1139,l),
(1162,1249,l),
(401,488,l),
(213,677,l),
(172,148,l),
(700,189,l)
);
}
);
userData = {
assembly = "NPUSHB[ ]	/* 26 values pushed */
3 2 2 255 5 4 20 5 5 4 1 2 4 5 4 3 126 0 2 3 5 6 4 4 221 0
MDAP[1]	/* MoveDirectAbsPt */
MIRP[01101]	/* MoveIndirectRelPt */
SLOOP[ ]	/* SetLoopVariable */
IP[ ]	/* InterpolatePts */
SVTCA[0]	/* SetFreedomAndProjectionVectorToAxis */
MDAP[1]	/* MoveDirectAbsPt */
MIRP[01101]	/* MoveIndirectRelPt */
SLOOP[ ]	/* SetLoopVariable */
IP[ ]	/* InterpolatePts */
IUP[1]	/* InterpolateUntPts */
IUP[0]	/* InterpolateUntPts */
SDPVTL[1]	/* SetDualPVectorToLine */
SFVTPV[ ]	/* SetFVectorToPVector */
MDAP[0]	/* MoveDirectAbsPt */
CALL[ ]	/* CallFunction */
SFVTPV[ ]	/* SetFVectorToPVector */
RDTG[ ]	/* RoundDownToGrid */
SRP0[ ]	/* SetRefPoint0 */
MDRP[00100]	/* MoveDirectRelPt */";
};
width = 1444;
}
);
note = a2sw;
unicode = 39;
}
{
glyphname = a2tableft;
layers = (
{
layerId = m01;
shapes = (
{
closed = 1;
nodes = (
(827,664,l),
(1649,664,l),
(1649,820,l),
(827,820,l),
(827,1087,l),
(424,742,l),
(827,397,l),
(827,397,l)
);
},
{
closed = 1;
nodes = (
(323,374,l),
(323,1110,l),
(171,1110,l),
(171,374,l),
(171,374,l)
);
}
);
userData = {
assembly = "NPUSHB[ ]	/* 35 values pushed */
6 9 6 2 15 6 15 9 31 6 31 9 4 4 5 10 0 1 171 0 5 124 6 254 9 124 0 6 10 4 6 10 3 8 3
PUSHW[ ]	/* 1 value pushed */
256
PUSHB[ ]	/* 3 values pushed */
8 91 0
MDAP[1]	/* MoveDirectAbsPt */
MIRP[01101]	/* MoveIndirectRelPt */
MIRP[11101]	/* MoveIndirectRelPt */
SRP1[ ]	/* SetRefPoint1 */
SLOOP[ ]	/* SetLoopVariable */
IP[ ]	/* InterpolatePts */
MDAP[1]	/* MoveDirectAbsPt */
MDAP[1]	/* MoveDirectAbsPt */
SVTCA[0]	/* SetFreedomAndProjectionVectorToAxis */
MDAP[1]	/* MoveDirectAbsPt */
MIRP[10100]	/* MoveIndirectRelPt */
MIRP[11101]	/* MoveIndirectRelPt */
MIRP[00100]	/* MoveIndirectRelPt */
SRP0[ ]	/* SetRefPoint0 */
MIRP[01101]	/* MoveIndirectRelPt */
SRP2[ ]	/* SetRefPoint2 */
IP[ ]	/* InterpolatePts */
SRP1[ ]	/* SetRefPoint1 */
IP[ ]	/* InterpolatePts */
IUP[1]	/* InterpolateUntPts */
IUP[0]	/* InterpolateUntPts */
SVTCA[1]	/* SetFreedomAndProjectionVectorToAxis */
DELTAP1[ ]	/* DeltaExceptionP1 */
SVTCA[1]	/* SetFreedomAndProjectionVectorToAxis */
SLOOP[ ]	/* SetLoopVariable */
SHPIX[ ]	/* ShiftZoneByPixel */";
};
width = 1825;
}
);
note = a2tableft;
unicode = 41;
}
{
glyphname = a2home;
layers = (
{
layerId = m01;
shapes = (
{
closed = 1;
nodes = (
(1393,261,l),
(681,972,l),
(795,1085,l),
(290,1199,l),
(405,697,l),
(518,811,l),
(1229,97,l),
(1229,97,l)
);
},
{
closed = 1;
nodes = (
(790,1266,l),
(790,1479,l),
(241,1479,l),
(241,1266,l),
(241,1266,l)
);
}
);
userData = {
assembly = "NPUSHB[ ]	/* 31 values pushed */
7 6 6 255 9 8 20 9 9 8 4 4 6 7 9 10 5 8 0 254 1 131 8 0 8 7 5 6 9 3 10
PUSHW[ ]	/* 1 value pushed */
257
PUSHB[ ]	/* 5 values pushed */
3 213 7 225 0
MDAP[1]	/* MoveDirectAbsPt */
MIRP[01101]	/* MoveIndirectRelPt */
MIRP[11101]	/* MoveIndirectRelPt */
MIRP[01101]	/* MoveIndirectRelPt */
SLOOP[ ]	/* SetLoopVariable */
IP[ ]	/* InterpolatePts */
SRP2[ ]	/* SetRefPoint2 */
IP[ ]	/* InterpolatePts */
SVTCA[0]	/* SetFreedomAndProjectionVectorToAxis */
MIAP[1]	/* MoveIndirectAbsPt */
MIRP[11101]	/* MoveIndirectRelPt */
MIRP[01101]	/* MoveIndirectRelPt */
SRP1[ ]	/* SetRefPoint1 */
SLOOP[ ]	/* SetLoopVariable */
IP[ ]	/* InterpolatePts */
MDAP[1]	/* MoveDirectAbsPt */
IUP[1]	/* InterpolateUntPts */
IUP[0]	/* InterpolateUntPts */
SDPVTL[1]	/* SetDualPVectorToLine */
SFVTPV[ ]	/* SetFVectorToPVector */
MDAP[0]	/* MoveDirectAbsPt */
CALL[ ]	/* CallFunction */
SFVTPV[ ]	/* SetFVectorToPVector */
RDTG[ ]	/* RoundDownToGrid */
SRP0[ ]	/* SetRefPoint0 */
MDRP[00100]	/* MoveDirectRelPt */";
};
width = 1677;
}
);
note = a2home;
unicode = 45;
}
{
glyphname = a2pageup;
layers = (
{
layerId = m01;
shapes = (
{
closed = 1;
nodes = (
(647,0,l),
(647,408,l),
(914,408,l),
(914,516,l),
(647,516,l),
(647,628,l),
(914,628,l),
(914,733,l),
(647,733,l),
(647,1057,l),
(914,1057,l),
(569,1460,l),
(224,1057,l),
(491,1057,l),
(491,733,l),
(224,733,l),
(224,628,l),
(491,628,l),
(491,516,l),
(224,516,l),
(224,408,l),
(491,408,l),
(491,0,l)
);
}
);
userData = {
assembly = "PUSHB[ ]	/* 2 values pushed */
21 2
PUSHW[ ]	/* 1 value pushed */
-6
NPUSHB[ ]	/* 14 values pushed */
2 16 2 16 21 2 2 22 22 2 0 6 3 19
PUSHW[ ]	/* 3 values pushed */
258 18 258
PUSHB[ ]	/* 3 values pushed */
15 7 15
PUSHW[ ]	/* 1 value pushed */
258
NPUSHB[ ]	/* 30 values pushed */
14 10 16 14 1 14 202 18 0 131 12 0 5 1 9 0 3 7 3 11 12 20 16 13 18 22 14 153 12 13
PUSHW[ ]	/* 1 value pushed */
256
PUSHB[ ]	/* 3 values pushed */
9 153 11
PUSHW[ ]	/* 1 value pushed */
256
PUSHB[ ]	/* 3 values pushed */
12 153 22
MDAP[1]	/* MoveDirectAbsPt */
MIRP[10100]	/* MoveIndirectRelPt */
MIRP[11101]	/* MoveIndirectRelPt */
MIRP[00100]	/* MoveIndirectRelPt */
MIRP[01101]	/* MoveIndirectRelPt */
SRP0[ ]	/* SetRefPoint0 */
MIRP[00100]	/* MoveIndirectRelPt */
SRP1[ ]	/* SetRefPoint1 */
IP[ ]	/* InterpolatePts */
SRP1[ ]	/* SetRefPoint1 */
IP[ ]	/* InterpolatePts */
IP[ ]	/* InterpolatePts */
SRP1[ ]	/* SetRefPoint1 */
SRP2[ ]	/* SetRefPoint2 */
SLOOP[ ]	/* SetLoopVariable */
IP[ ]	/* InterpolatePts */
SRP1[ ]	/* SetRefPoint1 */
IP[ ]	/* InterpolatePts */
IP[ ]	/* InterpolatePts */
SVTCA[0]	/* SetFreedomAndProjectionVectorToAxis */
MIAP[1]	/* MoveIndirectAbsPt */
MIRP[01101]	/* MoveIndirectRelPt */
IP[ ]	/* InterpolatePts */
MIRP[00100]	/* MoveIndirectRelPt */
DELTAP1[ ]	/* DeltaExceptionP1 */
IP[ ]	/* InterpolatePts */
SRP0[ ]	/* SetRefPoint0 */
MIRP[01101]	/* MoveIndirectRelPt */
IP[ ]	/* InterpolatePts */
SRP0[ ]	/* SetRefPoint0 */
MIRP[10101]	/* MoveIndirectRelPt */
MIRP[01101]	/* MoveIndirectRelPt */
IP[ ]	/* InterpolatePts */
IP[ ]	/* InterpolatePts */
SRP1[ ]	/* SetRefPoint1 */
IP[ ]	/* InterpolatePts */
IP[ ]	/* InterpolatePts */
MDAP[1]	/* MoveDirectAbsPt */
MDAP[1]	/* MoveDirectAbsPt */
IUP[1]	/* InterpolateUntPts */
IUP[0]	/* InterpolateUntPts */
SVTCA[0]	/* SetFreedomAndProjectionVectorToAxis */
DELTAP1[ ]	/* DeltaExceptionP1 */
SLOOP[ ]	/* SetLoopVariable */
SHPIX[ ]	/* ShiftZoneByPixel */";
};
width = 1135;
}
);
note = a2pageup;
unicode = 47;
}
{
glyphname = a2leftright;
layers = (
{
layerId = m01;
shapes = (
{
closed = 1;
nodes = (
(577,664,l),
(1250,664,l),
(1250,397,l),
(1653,742,l),
(1250,1087,l),
(1250,820,l),
(577,820,l),
(577,1087,l),
(174,742,l),
(577,397,l),
(577,397,l)
);
}
);
userData = {
assembly = "NPUSHB[ ]	/* 25 values pushed */
1 2 3 7 4 8 6 124 4 254 0 124 8 1 4 5 8 1 4 5 8 4 7 91 2
MDAP[1]	/* MoveDirectAbsPt */
MIRP[01101]	/* MoveIndirectRelPt */
SLOOP[ ]	/* SetLoopVariable */
IP[ ]	/* InterpolatePts */
MDAP[1]	/* MoveDirectAbsPt */
MDAP[1]	/* MoveDirectAbsPt */
MDAP[1]	/* MoveDirectAbsPt */
MDAP[1]	/* MoveDirectAbsPt */
SVTCA[0]	/* SetFreedomAndProjectionVectorToAxis */
MDAP[1]	/* MoveDirectAbsPt */
MIRP[10100]	/* MoveIndirectRelPt */
MIRP[11101]	/* MoveIndirectRelPt */
MIRP[00100]	/* MoveIndirectRelPt */
SRP1[ ]	/* SetRefPoint1 */
SLOOP[ ]	/* SetLoopVariable */
IP[ ]	/* InterpolatePts */
IUP[1]	/* InterpolateUntPts */
IUP[0]	/* InterpolateUntPts */";
};
width = 1135;
}
);
note = a2leftright;
unicode = 49;
}
{
glyphname = a2leftdash;
layers = (
{
layerId = m01;
shapes = (
{
closed = 1;
nodes = (
(577,664,l),
(760,664,l),
(760,820,l),
(577,820,l),
(577,1087,l),
(174,742,l),
(577,397,l)
);
},
{
closed = 1;
nodes = (
(1053,664,l),
(1053,820,l),
(870,820,l),
(870,664,l)
);
},
{
closed = 1;
nodes = (
(1346,664,l),
(1346,820,l),
(1163,820,l),
(1163,664,l)
);
},
{
closed = 1;
nodes = (
(1639,664,l),
(1639,820,l),
(1456,820,l),
(1456,664,l)
);
}
);
userData = {
assembly = "NPUSHB[ ]	/* 37 values pushed */
15 0 8 10 18 14 5 6 10 254 11 7 254 3 254 8 254 5 1 124 2 11 2 254 5 124 6 2 4 6 2 4 6 3 10 0 14
PUSHW[ ]	/* 7 values pushed */
259 13 10 259 9 18 259
PUSHB[ ]	/* 6 values pushed */
17 13 9 17 91 0
MDAP[1]	/* MoveDirectAbsPt */
MIRP[01101]	/* MoveIndirectRelPt */
IP[ ]	/* InterpolatePts */
IP[ ]	/* InterpolatePts */
SRP0[ ]	/* SetRefPoint0 */
MIRP[01101]	/* MoveIndirectRelPt */
MDAP[1]	/* MoveDirectAbsPt */
MIRP[01101]	/* MoveIndirectRelPt */
MDAP[1]	/* MoveDirectAbsPt */
MIRP[01101]	/* MoveIndirectRelPt */
SRP1[ ]	/* SetRefPoint1 */
SRP2[ ]	/* SetRefPoint2 */
SLOOP[ ]	/* SetLoopVariable */
IP[ ]	/* InterpolatePts */
MDAP[1]	/* MoveDirectAbsPt */
MDAP[1]	/* MoveDirectAbsPt */
MDAP[1]	/* MoveDirectAbsPt */
SVTCA[0]	/* SetFreedomAndProjectionVectorToAxis */
MDAP[1]	/* MoveDirectAbsPt */
MIRP[10100]	/* MoveIndirectRelPt */
MIRP[01101]	/* MoveIndirectRelPt */
IP[ ]	/* InterpolatePts */
SRP0[ ]	/* SetRefPoint0 */
MIRP[00100]	/* MoveIndirectRelPt */
SRP0[ ]	/* SetRefPoint0 */
MIRP[01101]	/* MoveIndirectRelPt */
MIRP[01101]	/* MoveIndirectRelPt */
MIRP[01101]	/* MoveIndirectRelPt */
SRP0[ ]	/* SetRefPoint0 */
MIRP[01101]	/* MoveIndirectRelPt */
SRP1[ ]	/* SetRefPoint1 */
SRP2[ ]	/* SetRefPoint2 */
IP[ ]	/* InterpolatePts */
IP[ ]	/* InterpolatePts */
SRP1[ ]	/* SetRefPoint1 */
SRP2[ ]	/* SetRefPoint2 */
IP[ ]	/* InterpolatePts */
IP[ ]	/* InterpolatePts */
IUP[1]	/* InterpolateUntPts */
IUP[0]	/* InterpolateUntPts */";
};
width = 1135;
}
);
note = a2leftdash;
unicode = 51;
}
{
glyphname = a2zigzag;
layers = (
{
layerId = m01;
shapes = (
{
closed = 1;
nodes = (
(1395,788,l),
(604,788,l),
(1101,1286,l),
(988,1399,l),
(212,625,l),
(1004,625,l),
(538,158,l),
(651,45,l)
);
},
{
closed = 1;
nodes = (
(949,24,l),
(519,454,l),
(414,-79,l)
);
}
);
userData = {
assembly = "NPUSHB[ ]	/* 31 values pushed */
3 2 2 255 9 8 20 9 9 8 6 7 7 255 4 5 20 4 4 5 6 5 7 1 2 9 3 0 4 254 7
PUSHW[ ]	/* 1 value pushed */
261
NPUSHB[ ]	/* 15 values pushed */
5 131 0 0 0 0 2 3 5 6 7 9 10 8 8
PUSHW[ ]	/* 2 values pushed */
260 4
MDAP[1]	/* MoveDirectAbsPt */
MIRP[01101]	/* MoveIndirectRelPt */
SLOOP[ ]	/* SetLoopVariable */
IP[ ]	/* InterpolatePts */
MDAP[1]	/* MoveDirectAbsPt */
SVTCA[0]	/* SetFreedomAndProjectionVectorToAxis */
MIAP[1]	/* MoveIndirectAbsPt */
MIRP[01101]	/* MoveIndirectRelPt */
MIRP[11101]	/* MoveIndirectRelPt */
MIRP[01101]	/* MoveIndirectRelPt */
SRP1[ ]	/* SetRefPoint1 */
SLOOP[ ]	/* SetLoopVariable */
IP[ ]	/* InterpolatePts */
SRP1[ ]	/* SetRefPoint1 */
SRP2[ ]	/* SetRefPoint2 */
IP[ ]	/* InterpolatePts */
IUP[1]	/* InterpolateUntPts */
IUP[0]	/* InterpolateUntPts */
SDPVTL[1]	/* SetDualPVectorToLine */
SFVTCA[1]	/* SetFVectorToAxis */
MDAP[0]	/* MoveDirectAbsPt */
CALL[ ]	/* CallFunction */
SFVTPV[ ]	/* SetFVectorToPVector */
RDTG[ ]	/* RoundDownToGrid */
SRP0[ ]	/* SetRefPoint0 */
MDRP[00100]	/* MoveDirectRelPt */
SDPVTL[1]	/* SetDualPVectorToLine */
SFVTPV[ ]	/* SetFVectorToPVector */
MDAP[0]	/* MoveDirectAbsPt */
RTG[ ]	/* RoundToGrid */
CALL[ ]	/* CallFunction */
SFVTCA[1]	/* SetFVectorToAxis */
RDTG[ ]	/* RoundDownToGrid */
SRP0[ ]	/* SetRefPoint0 */
MDRP[00100]	/* MoveDirectRelPt */";
};
width = 1135;
}
);
note = a2zigzag;
unicode = 55;
}
{
glyphname = a2cornerdwnleft;
layers = (
{
layerId = m01;
shapes = (
{
closed = 1;
nodes = (
(577,664,l),
(1569,664,l),
(1569,820,l),
(577,820,l),
(577,1087,l),
(174,742,l),
(577,397,l)
);
},
{
closed = 1;
nodes = (
(1649,664,l),
(1649,1480,l),
(1496,1480,l),
(1496,664,l)
);
}
);
userData = {
assembly = "PUSHB[ ]	/* 6 values pushed */
0 7 254 2 1 2
PUSHW[ ]	/* 1 value pushed */
262
NPUSHB[ ]	/* 9 values pushed */
4 126 8 2 8 8 2 0 3
PUSHW[ ]	/* 1 value pushed */
256
PUSHB[ ]	/* 3 values pushed */
6 91 0
MDAP[1]	/* MoveDirectAbsPt */
MIRP[11101]	/* MoveIndirectRelPt */
MIRP[01101]	/* MoveIndirectRelPt */
SRP1[ ]	/* SetRefPoint1 */
IP[ ]	/* InterpolatePts */
IP[ ]	/* InterpolatePts */
MDAP[1]	/* MoveDirectAbsPt */
MDAP[1]	/* MoveDirectAbsPt */
SVTCA[0]	/* SetFreedomAndProjectionVectorToAxis */
MDAP[1]	/* MoveDirectAbsPt */
MIRP[11101]	/* MoveIndirectRelPt */
MIRP[00100]	/* MoveIndirectRelPt */
IP[ ]	/* InterpolatePts */
SRP0[ ]	/* SetRefPoint0 */
MIRP[01101]	/* MoveIndirectRelPt */
IP[ ]	/* InterpolatePts */
IUP[1]	/* InterpolateUntPts */
IUP[0]	/* InterpolateUntPts */";
};
width = 1135;
}
);
note = a2cornerdwnleft;
unicode = 56;
}
{
glyphname = a2cornerdwnrt;
layers = (
{
layerId = m01;
shapes = (
{
closed = 1;
nodes = (
(1653,742,l),
(1250,1087,l),
(1250,820,l),
(258,820,l),
(258,664,l),
(1250,664,l),
(1250,397,l),
(1250,397,l)
);
},
{
closed = 1;
nodes = (
(331,1480,l),
(178,1480,l),
(178,664,l),
(331,664,l),
(331,664,l)
);
}
);
userData = {
assembly = "PUSHB[ ]	/* 6 values pushed */
0 3 254 6 8 6
PUSHW[ ]	/* 1 value pushed */
262
NPUSHB[ ]	/* 9 values pushed */
4 126 1 1 7 7 1 0 6
PUSHW[ ]	/* 1 value pushed */
256
PUSHB[ ]	/* 3 values pushed */
0 91 3
MDAP[1]	/* MoveDirectAbsPt */
MIRP[01101]	/* MoveIndirectRelPt */
MIRP[11101]	/* MoveIndirectRelPt */
SRP1[ ]	/* SetRefPoint1 */
IP[ ]	/* InterpolatePts */
IP[ ]	/* InterpolatePts */
MDAP[1]	/* MoveDirectAbsPt */
MDAP[1]	/* MoveDirectAbsPt */
SVTCA[0]	/* SetFreedomAndProjectionVectorToAxis */
MDAP[1]	/* MoveDirectAbsPt */
MIRP[11101]	/* MoveIndirectRelPt */
MIRP[00100]	/* MoveIndirectRelPt */
IP[ ]	/* InterpolatePts */
SRP0[ ]	/* SetRefPoint0 */
MIRP[01101]	/* MoveIndirectRelPt */
IP[ ]	/* InterpolatePts */
IUP[1]	/* InterpolateUntPts */
IUP[0]	/* InterpolateUntPts */";
};
width = 1135;
}
);
note = a2cornerdwnrt;
unicode = 57;
}
{
glyphname = returnleft;
layers = (
{
layerId = m01;
shapes = (
{
closed = 1;
nodes = (
(607,646,l),
(1441,646,l),
(1710,1480,l),
(1055,1480,l),
(1055,1289,l),
(1425,1289,l),
(1278,835,l),
(607,835,l),
(607,995,l),
(243,741,l),
(607,486,l),
(607,486,l)
);
}
);
userData = {
assembly = "NPUSHB[ ]	/* 36 values pushed */
3 4 4 255 7 8 20 7 7 8 1 5 0 2 254 9 5 254 6 9 6 126 10 2 5 10 2 3 4 5 8 10 6 7 240 0
MDAP[1]	/* MoveDirectAbsPt */
MIRP[01101]	/* MoveIndirectRelPt */
SLOOP[ ]	/* SetLoopVariable */
IP[ ]	/* InterpolatePts */
MDAP[1]	/* MoveDirectAbsPt */
MDAP[1]	/* MoveDirectAbsPt */
MDAP[1]	/* MoveDirectAbsPt */
SVTCA[0]	/* SetFreedomAndProjectionVectorToAxis */
MDAP[1]	/* MoveDirectAbsPt */
MIRP[01101]	/* MoveIndirectRelPt */
IP[ ]	/* InterpolatePts */
SRP0[ ]	/* SetRefPoint0 */
MIRP[01101]	/* MoveIndirectRelPt */
MDAP[1]	/* MoveDirectAbsPt */
MIRP[01101]	/* MoveIndirectRelPt */
IP[ ]	/* InterpolatePts */
SRP1[ ]	/* SetRefPoint1 */
IP[ ]	/* InterpolatePts */
IUP[1]	/* InterpolateUntPts */
IUP[0]	/* InterpolateUntPts */
SDPVTL[1]	/* SetDualPVectorToLine */
SFVTCA[1]	/* SetFVectorToAxis */
MDAP[0]	/* MoveDirectAbsPt */
CALL[ ]	/* CallFunction */
RDTG[ ]	/* RoundDownToGrid */
SRP0[ ]	/* SetRefPoint0 */
MDRP[00100]	/* MoveDirectRelPt */";
};
width = 2010;
}
);
note = returnleft;
unicode = 64;
}
{
glyphname = newlineleft;
layers = (
{
layerId = m01;
shapes = (
{
closed = 1;
nodes = (
(1019,566,l),
(1587,566,l),
(1587,1476,l),
(1204,1476,l),
(1204,1268,l),
(1379,1268,l),
(1379,772,l),
(1019,772,l),
(1019,947,l),
(622,670,l),
(1019,391,l)
);
},
{
closed = 1;
nodes = (
(544,566,l),
(544,772,l),
(243,772,l),
(243,566,l)
);
},
{
closed = 1;
nodes = (
(1033,1268,l),
(1033,1476,l),
(243,1476,l),
(243,1268,l)
);
}
);
userData = {
assembly = "NPUSHB[ ]	/* 9 values pushed */
1 15 0 2 9 3 12 254 11
PUSHW[ ]	/* 1 value pushed */
265
NPUSHB[ ]	/* 13 values pushed */
6 5 15 254 16 126 10 0 2 18 3 14 10
PUSHW[ ]	/* 1 value pushed */
264
PUSHB[ ]	/* 6 values pushed */
11 5 153 3 15 14
PUSHW[ ]	/* 4 values pushed */
263 11 3 256
PUSHB[ ]	/* 3 values pushed */
8 91 11
MDAP[1]	/* MoveDirectAbsPt */
MIRP[11101]	/* MoveIndirectRelPt */
MIRP[01101]	/* MoveIndirectRelPt */
SRP0[ ]	/* SetRefPoint0 */
MIRP[01101]	/* MoveIndirectRelPt */
IP[ ]	/* InterpolatePts */
SRP0[ ]	/* SetRefPoint0 */
MIRP[00100]	/* MoveIndirectRelPt */
SRP0[ ]	/* SetRefPoint0 */
MIRP[00100]	/* MoveIndirectRelPt */
SRP1[ ]	/* SetRefPoint1 */
SLOOP[ ]	/* SetLoopVariable */
IP[ ]	/* InterpolatePts */
SVTCA[0]	/* SetFreedomAndProjectionVectorToAxis */
MDAP[1]	/* MoveDirectAbsPt */
MIRP[11101]	/* MoveIndirectRelPt */
MIRP[01101]	/* MoveIndirectRelPt */
IP[ ]	/* InterpolatePts */
IP[ ]	/* InterpolatePts */
MIRP[11101]	/* MoveIndirectRelPt */
MIRP[01101]	/* MoveIndirectRelPt */
SLOOP[ ]	/* SetLoopVariable */
IP[ ]	/* InterpolatePts */
SRP1[ ]	/* SetRefPoint1 */
IP[ ]	/* InterpolatePts */
IUP[1]	/* InterpolateUntPts */
IUP[0]	/* InterpolateUntPts */";
};
width = 1825;
}
);
note = newlineleft;
unicode = 66;
}
{
glyphname = a2opleftrt;
layers = (
{
layerId = m01;
shapes = (
{
closed = 1;
nodes = (
(634,956,l),
(1623,956,l),
(1623,1182,l),
(634,1182,l),
(634,1339,l),
(202,1069,l),
(634,799,l),
(634,799,l)
);
},
{
closed = 1;
nodes = (
(1623,430,l),
(1192,701,l),
(1192,544,l),
(202,544,l),
(202,317,l),
(1192,317,l),
(1192,160,l),
(1192,160,l)
);
}
);
userData = {
assembly = "NPUSHB[ ]	/* 21 values pushed */
13 6 4 7 12 254 9 0 4 254 3 9 3 8 131 1 0 5 1 9 13
PUSHW[ ]	/* 4 values pushed */
267 3 1 266
PUSHB[ ]	/* 6 values pushed */
11 11 3 0 91 7
MDAP[1]	/* MoveDirectAbsPt */
MIRP[01101]	/* MoveIndirectRelPt */
IP[ ]	/* InterpolatePts */
IP[ ]	/* InterpolatePts */
SRP0[ ]	/* SetRefPoint0 */
MIRP[01101]	/* MoveIndirectRelPt */
SRP0[ ]	/* SetRefPoint0 */
MIRP[00100]	/* MoveIndirectRelPt */
IP[ ]	/* InterpolatePts */
SRP1[ ]	/* SetRefPoint1 */
IP[ ]	/* InterpolatePts */
SVTCA[0]	/* SetFreedomAndProjectionVectorToAxis */
MIAP[1]	/* MoveIndirectAbsPt */
MIRP[01101]	/* MoveIndirectRelPt */
IP[ ]	/* InterpolatePts */
IP[ ]	/* InterpolatePts */
MDAP[1]	/* MoveDirectAbsPt */
MIRP[01101]	/* MoveIndirectRelPt */
IP[ ]	/* InterpolatePts */
MDAP[1]	/* MoveDirectAbsPt */
MIRP[01101]	/* MoveIndirectRelPt */
IP[ ]	/* InterpolatePts */
SRP1[ ]	/* SetRefPoint1 */
IP[ ]	/* InterpolatePts */
IP[ ]	/* InterpolatePts */
IUP[1]	/* InterpolateUntPts */
IUP[0]	/* InterpolateUntPts */";
};
width = 1825;
}
);
note = a2opleftrt;
unicode = 68;
}
{
glyphname = a2optableftrt;
layers = (
{
guides = (
{
angle = 90;
pos = (202,431);
}
);
layerId = m01;
shapes = (
{
closed = 1;
nodes = (
(1423,430,l),
(992,701,l),
(992,544,l),
(202,544,l),
(202,317,l),
(992,317,l),
(992,160,l)
);
},
{
closed = 1;
nodes = (
(1623,160,l),
(1623,701,l),
(1472,701,l),
(1472,160,l)
);
},
{
closed = 1;
nodes = (
(834,956,l),
(1623,956,l),
(1623,1182,l),
(834,1182,l),
(834,1339,l),
(402,1069,l),
(834,799,l)
);
},
{
closed = 1;
nodes = (
(353,799,l),
(353,1340,l),
(202,1340,l),
(202,799,l)
);
}
);
userData = {
assembly = "NPUSHB[ ]	/* 36 values pushed */
21 10 2 8 5 1 1 4 8 254 7 15 20 254 17 11 171 12 2 171 7 17 12 3 16 131 1 0 4 1 9 5 17 15 14 21
PUSHW[ ]	/* 4 values pushed */
268 7 5 268
PUSHB[ ]	/* 3 values pushed */
0 11 14
PUSHW[ ]	/* 1 value pushed */
256
PUSHB[ ]	/* 3 values pushed */
7 19 1
PUSHW[ ]	/* 1 value pushed */
256
PUSHB[ ]	/* 3 values pushed */
0 91 7
MDAP[1]	/* MoveDirectAbsPt */
MIRP[11101]	/* MoveIndirectRelPt */
MIRP[01101]	/* MoveIndirectRelPt */
IP[ ]	/* InterpolatePts */
SRP0[ ]	/* SetRefPoint0 */
MIRP[01101]	/* MoveIndirectRelPt */
IP[ ]	/* InterpolatePts */
SRP0[ ]	/* SetRefPoint0 */
MIRP[00100]	/* MoveIndirectRelPt */
SRP0[ ]	/* SetRefPoint0 */
MIRP[00100]	/* MoveIndirectRelPt */
SRP1[ ]	/* SetRefPoint1 */
IP[ ]	/* InterpolatePts */
IP[ ]	/* InterpolatePts */
SRP1[ ]	/* SetRefPoint1 */
IP[ ]	/* InterpolatePts */
SRP2[ ]	/* SetRefPoint2 */
IP[ ]	/* InterpolatePts */
SVTCA[0]	/* SetFreedomAndProjectionVectorToAxis */
MIAP[1]	/* MoveIndirectAbsPt */
MIRP[01101]	/* MoveIndirectRelPt */
SLOOP[ ]	/* SetLoopVariable */
IP[ ]	/* InterpolatePts */
MIRP[01101]	/* MoveIndirectRelPt */
SRP0[ ]	/* SetRefPoint0 */
MIRP[01101]	/* MoveIndirectRelPt */
MDAP[1]	/* MoveDirectAbsPt */
MIRP[01101]	/* MoveIndirectRelPt */
IP[ ]	/* InterpolatePts */
MDAP[1]	/* MoveDirectAbsPt */
MIRP[01101]	/* MoveIndirectRelPt */
IP[ ]	/* InterpolatePts */
SRP1[ ]	/* SetRefPoint1 */
SRP2[ ]	/* SetRefPoint2 */
IP[ ]	/* InterpolatePts */
SRP1[ ]	/* SetRefPoint1 */
SRP2[ ]	/* SetRefPoint2 */
IP[ ]	/* InterpolatePts */
IP[ ]	/* InterpolatePts */
IUP[1]	/* InterpolateUntPts */
IUP[0]	/* InterpolateUntPts */";
};
width = 1825;
}
);
note = a2optableftrt;
unicode = 70;
}
{
glyphname = a2parllleft;
layers = (
{
layerId = m01;
shapes = (
{
closed = 1;
nodes = (
(633,936,l),
(1623,936,l),
(1623,1162,l),
(633,1162,l),
(633,1319,l),
(202,1049,l),
(633,779,l)
);
},
{
closed = 1;
nodes = (
(633,297,l),
(1623,297,l),
(1623,524,l),
(633,524,l),
(633,681,l),
(202,410,l),
(633,140,l)
);
}
);
userData = {
assembly = "NPUSHB[ ]	/* 32 values pushed */
2 13 1 12 0 2 254 5 7 12 254 9 9 5 8 131 6 0 2 6 9 13 2 6 7 9 11 13 6 4 91 0
MDAP[1]	/* MoveDirectAbsPt */
MIRP[01101]	/* MoveIndirectRelPt */
SLOOP[ ]	/* SetLoopVariable */
IP[ ]	/* InterpolatePts */
MDAP[1]	/* MoveDirectAbsPt */
MDAP[1]	/* MoveDirectAbsPt */
MDAP[1]	/* MoveDirectAbsPt */
MDAP[1]	/* MoveDirectAbsPt */
SVTCA[0]	/* SetFreedomAndProjectionVectorToAxis */
MIAP[1]	/* MoveIndirectAbsPt */
MIRP[01101]	/* MoveIndirectRelPt */
IP[ ]	/* InterpolatePts */
IP[ ]	/* InterpolatePts */
MDAP[1]	/* MoveDirectAbsPt */
MIRP[01101]	/* MoveIndirectRelPt */
IP[ ]	/* InterpolatePts */
MDAP[1]	/* MoveDirectAbsPt */
MIRP[01101]	/* MoveIndirectRelPt */
IP[ ]	/* InterpolatePts */
SRP1[ ]	/* SetRefPoint1 */
IP[ ]	/* InterpolatePts */
IP[ ]	/* InterpolatePts */
SCANTYPE[ ]	/* ScanType */
IUP[1]	/* InterpolateUntPts */
IUP[0]	/* InterpolateUntPts */";
};
width = 1825;
}
);
note = a2parllleft;
unicode = 72;
}
{
glyphname = a2uleftdown;
layers = (
{
layerId = m01;
shapes = (
{
closed = 1;
nodes = (
(873,460,l),
(598,460,l),
(598,808,ls),
(598,1157,o),
(754,1341,o),
(1050,1341,cs),
(1346,1341,o),
(1503,1156,o),
(1503,808,cs),
(1503,460,l),
(1654,460,l),
(1654,808,ls),
(1654,1235,o),
(1432,1484,o),
(1050,1484,cs),
(668,1484,o),
(448,1236,o),
(448,808,cs),
(448,460,l),
(171,460,l),
(522,0,l)
);
}
);
userData = {
assembly = "NPUSHB[ ]	/* 18 values pushed */
0 3 13 0 3 13 3 2 17 254 8 131 2 0 1 13 2 0
PUSHW[ ]	/* 4 values pushed */
256 4 13 256
PUSHB[ ]	/* 5 values pushed */
12 4 12 91 3
MDAP[1]	/* MoveDirectAbsPt */
MIRP[01101]	/* MoveIndirectRelPt */
IP[ ]	/* InterpolatePts */
SRP0[ ]	/* SetRefPoint0 */
MIRP[01101]	/* MoveIndirectRelPt */
MDAP[1]	/* MoveDirectAbsPt */
MIRP[01101]	/* MoveIndirectRelPt */
IP[ ]	/* InterpolatePts */
SRP1[ ]	/* SetRefPoint1 */
IP[ ]	/* InterpolatePts */
SVTCA[0]	/* SetFreedomAndProjectionVectorToAxis */
MIAP[1]	/* MoveIndirectAbsPt */
MIRP[11101]	/* MoveIndirectRelPt */
MIRP[01101]	/* MoveIndirectRelPt */
SRP1[ ]	/* SetRefPoint1 */
SLOOP[ ]	/* SetLoopVariable */
IP[ ]	/* InterpolatePts */
MDAP[1]	/* MoveDirectAbsPt */
MDAP[1]	/* MoveDirectAbsPt */
MDAP[1]	/* MoveDirectAbsPt */
IUP[1]	/* InterpolateUntPts */
IUP[0]	/* InterpolateUntPts */";
};
width = 1825;
}
);
note = a2uleftdown;
unicode = 76;
}
{
glyphname = a2clockwise;
layers = (
{
layerId = m01;
shapes = (
{
closed = 1;
nodes = (
(1320,-1,o),
(1650,335,o),
(1650,753,cs),
(1650,959,o),
(1570,1145,o),
(1439,1279,c),
(1333,1171,l),
(1439,1061,o),
(1506,913,o),
(1506,753,cs),
(1506,410,o),
(1232,141,o),
(893,141,cs),
(548,141,o),
(283,412,o),
(283,753,cs),
(283,924,o),
(358,1082,o),
(471,1193,c),
(616,1049,l),
(702,1536,l),
(216,1449,l),
(367,1297,l),
(227,1163,o),
(141,969,o),
(141,753,cs),
(141,331,o),
(471,-1,o),
(893,-1,cs)
);
}
);
userData = {
assembly = "NPUSHB[ ]	/* 19 values pushed */
0 3 4 14 15 5 1 9 254 1 236 20 0 15 14 12 4 0 3
PUSHW[ ]	/* 4 values pushed */
269 6 12 256
PUSHB[ ]	/* 3 values pushed */
17 1 6
PUSHW[ ]	/* 1 value pushed */
256
PUSHB[ ]	/* 3 values pushed */
17 91 23
MDAP[1]	/* MoveDirectAbsPt */
MIRP[01101]	/* MoveIndirectRelPt */
MIRP[01101]	/* MoveIndirectRelPt */
IP[ ]	/* InterpolatePts */
SRP0[ ]	/* SetRefPoint0 */
MIRP[01101]	/* MoveIndirectRelPt */
SRP0[ ]	/* SetRefPoint0 */
MIRP[00110]	/* MoveIndirectRelPt */
IP[ ]	/* InterpolatePts */
IP[ ]	/* InterpolatePts */
SRP1[ ]	/* SetRefPoint1 */
IP[ ]	/* InterpolatePts */
IP[ ]	/* InterpolatePts */
SVTCA[0]	/* SetFreedomAndProjectionVectorToAxis */
MIAP[1]	/* MoveIndirectAbsPt */
MIRP[00100]	/* MoveIndirectRelPt */
MIRP[11101]	/* MoveIndirectRelPt */
SRP1[ ]	/* SetRefPoint1 */
SLOOP[ ]	/* SetLoopVariable */
IP[ ]	/* InterpolatePts */
IUP[1]	/* InterpolateUntPts */
IUP[0]	/* InterpolateUntPts */";
};
width = 1825;
}
);
note = a2clockwise;
unicode = 80;
}
{
glyphname = escape1;
layers = (
{
guides = (
{
pos = (914,1467);
},
{
angle = 90;
pos = (179,735);
},
{
angle = 90;
pos = (914,1367);
},
{
pos = (279,735);
}
);
layerId = m01;
shapes = (
{
closed = 1;
nodes = (
(1313,0,o),
(1644,325,o),
(1644,730,cs),
(1644,1134,o),
(1317,1461,o),
(914,1461,c),
(914,1306,l),
(1237,1306,o),
(1490,1051,o),
(1490,730,cs),
(1490,410,o),
(1235,155,o),
(914,155,cs),
(596,155,o),
(339,410,o),
(339,730,c),
(184,730,l),
(184,331,o),
(509,0,o),
(914,0,cs)
);
},
{
closed = 1;
nodes = (
(1137,604,l),
(546,1206,l),
(692,1354,l),
(180,1472,l),
(286,948,l),
(435,1097,l),
(1025,495,l)
);
}
);
userData = {
assembly = "NPUSHB[ ]	/* 40 values pushed */
23 22 22 255 25 24 20 25 25 24 0 0 22 23 24 25 26 6 4 10 254 11 4 254 11 20 131 17 0 10 10 21 22 23 24 25 6 7 26 1
PUSHW[ ]	/* 4 values pushed */
256 0 7 256
PUSHB[ ]	/* 3 values pushed */
14 91 0
MDAP[1]	/* MoveDirectAbsPt */
MIRP[11101]	/* MoveIndirectRelPt */
MIRP[01101]	/* MoveIndirectRelPt */
SRP0[ ]	/* SetRefPoint0 */
MIRP[01101]	/* MoveIndirectRelPt */
IP[ ]	/* InterpolatePts */
SRP1[ ]	/* SetRefPoint1 */
SLOOP[ ]	/* SetLoopVariable */
IP[ ]	/* InterpolatePts */
MDAP[1]	/* MoveDirectAbsPt */
SVTCA[0]	/* SetFreedomAndProjectionVectorToAxis */
MIAP[1]	/* MoveIndirectAbsPt */
MIRP[01101]	/* MoveIndirectRelPt */
IP[ ]	/* InterpolatePts */
MIRP[01101]	/* MoveIndirectRelPt */
MDAP[1]	/* MoveDirectAbsPt */
MIRP[01101]	/* MoveIndirectRelPt */
SRP1[ ]	/* SetRefPoint1 */
SLOOP[ ]	/* SetLoopVariable */
IP[ ]	/* InterpolatePts */
MDAP[1]	/* MoveDirectAbsPt */
IUP[1]	/* InterpolateUntPts */
IUP[0]	/* InterpolateUntPts */
SDPVTL[1]	/* SetDualPVectorToLine */
SFVTPV[ ]	/* SetFVectorToPVector */
MDAP[0]	/* MoveDirectAbsPt */
CALL[ ]	/* CallFunction */
SFVTPV[ ]	/* SetFVectorToPVector */
RDTG[ ]	/* RoundDownToGrid */
SRP0[ ]	/* SetRefPoint0 */
MDRP[00100]	/* MoveDirectRelPt */";
};
width = 1825;
}
);
note = escape1;
unicode = 82;
}
{
glyphname = enter;
layers = (
{
layerId = m01;
shapes = (
{
closed = 1;
nodes = (
(1110,1277,l),
(1717,691,l),
(1829,807,l),
(1110,1480,l),
(391,807,l),
(503,691,l),
(503,691,l)
);
},
{
closed = 1;
nodes = (
(2039,1348,l),
(2039,1480,l),
(1505,1480,l),
(1505,1348,l),
(1505,1348,l)
);
},
{
closed = 1;
nodes = (
(715,1348,l),
(715,1480,l),
(181,1480,l),
(181,1348,l),
(181,1348,l)
);
}
);
userData = {
assembly = "NPUSHB[ ]	/* 35 values pushed */
9 4 4 255 7 8 20 7 7 8 5 4 4 255 7 6 20 7 7 6 12 7 2 4 5 6 8 11 5 9 0 254 1 1 2
PUSHW[ ]	/* 1 value pushed */
272
PUSHB[ ]	/* 7 values pushed */
9 7 4 11 6 5 3
PUSHW[ ]	/* 1 value pushed */
271
PUSHB[ ]	/* 4 values pushed */
0 9 8 11
PUSHW[ ]	/* 4 values pushed */
271 10 270 0
MDAP[1]	/* MoveDirectAbsPt */
MIRP[11101]	/* MoveIndirectRelPt */
MIRP[01101]	/* MoveIndirectRelPt */
IP[ ]	/* InterpolatePts */
IP[ ]	/* InterpolatePts */
SRP0[ ]	/* SetRefPoint0 */
MIRP[01101]	/* MoveIndirectRelPt */
IP[ ]	/* InterpolatePts */
IP[ ]	/* InterpolatePts */
SRP1[ ]	/* SetRefPoint1 */
IP[ ]	/* InterpolatePts */
IP[ ]	/* InterpolatePts */
SVTCA[0]	/* SetFreedomAndProjectionVectorToAxis */
MDAP[1]	/* MoveDirectAbsPt */
MIRP[01101]	/* MoveIndirectRelPt */
IP[ ]	/* InterpolatePts */
SRP0[ ]	/* SetRefPoint0 */
MIRP[01101]	/* MoveIndirectRelPt */
SRP1[ ]	/* SetRefPoint1 */
SLOOP[ ]	/* SetLoopVariable */
IP[ ]	/* InterpolatePts */
SRP1[ ]	/* SetRefPoint1 */
IP[ ]	/* InterpolatePts */
IP[ ]	/* InterpolatePts */
IUP[1]	/* InterpolateUntPts */
IUP[0]	/* InterpolateUntPts */
SDPVTL[1]	/* SetDualPVectorToLine */
SFVTPV[ ]	/* SetFVectorToPVector */
MDAP[0]	/* MoveDirectAbsPt */
CALL[ ]	/* CallFunction */
SFVTPV[ ]	/* SetFVectorToPVector */
RDTG[ ]	/* RoundDownToGrid */
SRP0[ ]	/* SetRefPoint0 */
MDRP[00100]	/* MoveDirectRelPt */
SDPVTL[1]	/* SetDualPVectorToLine */
SFVTPV[ ]	/* SetFVectorToPVector */
MDAP[0]	/* MoveDirectAbsPt */
RTG[ ]	/* RoundToGrid */
CALL[ ]	/* CallFunction */
SFVTPV[ ]	/* SetFVectorToPVector */
RDTG[ ]	/* RoundDownToGrid */
SRP0[ ]	/* SetRefPoint0 */
MDRP[00100]	/* MoveDirectRelPt */";
};
width = 2220;
}
);
note = enter;
unicode = 83;
}
{
glyphname = control;
layers = (
{
layerId = m01;
shapes = (
{
closed = 1;
nodes = (
(912,1277,l),
(1519,691,l),
(1631,807,l),
(912,1480,l),
(193,807,l),
(305,691,l),
(305,691,l)
);
}
);
userData = {
assembly = "NPUSHB[ ]	/* 26 values pushed */
2 3 3 255 0 1 20 0 0 1 4 3 3 255 0 5 20 0 0 5 1 2 3 5 4 0
PUSHW[ ]	/* 1 value pushed */
272
NPUSHB[ ]	/* 9 values pushed */
4 0 2 3 4 4 1 91 5
MDAP[1]	/* MoveDirectAbsPt */
MIRP[01101]	/* MoveIndirectRelPt */
SLOOP[ ]	/* SetLoopVariable */
IP[ ]	/* InterpolatePts */
SVTCA[0]	/* SetFreedomAndProjectionVectorToAxis */
MDAP[1]	/* MoveDirectAbsPt */
MIRP[01101]	/* MoveIndirectRelPt */
SLOOP[ ]	/* SetLoopVariable */
IP[ ]	/* InterpolatePts */
IUP[1]	/* InterpolateUntPts */
IUP[0]	/* InterpolateUntPts */
SDPVTL[1]	/* SetDualPVectorToLine */
SFVTPV[ ]	/* SetFVectorToPVector */
MDAP[0]	/* MoveDirectAbsPt */
CALL[ ]	/* CallFunction */
SFVTPV[ ]	/* SetFVectorToPVector */
RDTG[ ]	/* RoundDownToGrid */
SRP0[ ]	/* SetRefPoint0 */
MDRP[00100]	/* MoveDirectRelPt */
SDPVTL[1]	/* SetDualPVectorToLine */
SFVTPV[ ]	/* SetFVectorToPVector */
MDAP[0]	/* MoveDirectAbsPt */
RTG[ ]	/* RoundToGrid */
CALL[ ]	/* CallFunction */
SFVTPV[ ]	/* SetFVectorToPVector */
RDTG[ ]	/* RoundDownToGrid */
SRP0[ ]	/* SetRefPoint0 */
MDRP[00100]	/* MoveDirectRelPt */";
};
width = 1825;
}
);
note = control;
unicode = 84;
}
{
glyphname = option;
layers = (
{
layerId = m01;
shapes = (
{
closed = 1;
nodes = (
(1582,129,l),
(1582,284,l),
(1173,284,l),
(642,1338,l),
(169,1338,l),
(169,1184,l),
(564,1184,l),
(1093,129,l),
(1093,129,l)
);
},
{
closed = 1;
nodes = (
(1582,1184,l),
(1582,1338,l),
(1093,1338,l),
(1093,1184,l),
(1093,1184,l)
);
}
);
userData = {
assembly = "NPUSHB[ ]	/* 31 values pushed */
6 7 7 255 2 3 20 2 2 3 9 2 8 3 0 254 1 3 254 1 2 179 6 7 2 0 3 6 11 3 8
PUSHW[ ]	/* 4 values pushed */
271 5 260 0
MDAP[1]	/* MoveDirectAbsPt */
MIRP[11101]	/* MoveIndirectRelPt */
MIRP[01101]	/* MoveIndirectRelPt */
SLOOP[ ]	/* SetLoopVariable */
IP[ ]	/* InterpolatePts */
SRP1[ ]	/* SetRefPoint1 */
IP[ ]	/* InterpolatePts */
IP[ ]	/* InterpolatePts */
SVTCA[0]	/* SetFreedomAndProjectionVectorToAxis */
MDAP[1]	/* MoveDirectAbsPt */
MIRP[01101]	/* MoveIndirectRelPt */
IP[ ]	/* InterpolatePts */
MIRP[01101]	/* MoveIndirectRelPt */
SRP0[ ]	/* SetRefPoint0 */
MIRP[01101]	/* MoveIndirectRelPt */
SRP1[ ]	/* SetRefPoint1 */
IP[ ]	/* InterpolatePts */
SRP1[ ]	/* SetRefPoint1 */
IP[ ]	/* InterpolatePts */
IUP[1]	/* InterpolateUntPts */
IUP[0]	/* InterpolateUntPts */
SDPVTL[1]	/* SetDualPVectorToLine */
SFVTCA[1]	/* SetFVectorToAxis */
MDAP[0]	/* MoveDirectAbsPt */
CALL[ ]	/* CallFunction */
RDTG[ ]	/* RoundDownToGrid */
SRP0[ ]	/* SetRefPoint0 */
MDRP[00100]	/* MoveDirectRelPt */";
};
width = 1751;
}
);
note = option;
unicode = 85;
}
{
glyphname = spacemark;
layers = (
{
layerId = m01;
shapes = (
{
closed = 1;
nodes = (
(1014,-345,l),
(1014,0,l),
(886,0,l),
(886,-211,l),
(228,-211,l),
(228,0,l),
(100,0,l),
(100,-345,l),
(100,-345,l)
);
}
);
userData = {
assembly = "NPUSHB[ ]	/* 9 values pushed */
4 0 2 254 7 0 0 7 2
PUSHW[ ]	/* 7 values pushed */
256 7 3 256 6 273 7
MDAP[1]	/* MoveDirectAbsPt */
MIRP[11110]	/* MoveIndirectRelPt */
MIRP[01101]	/* MoveIndirectRelPt */
SRP0[ ]	/* SetRefPoint0 */
MIRP[01101]	/* MoveIndirectRelPt */
SVTCA[0]	/* SetFreedomAndProjectionVectorToAxis */
MDAP[1]	/* MoveDirectAbsPt */
MIAP[1]	/* MoveIndirectAbsPt */
SRP0[ ]	/* SetRefPoint0 */
MIRP[11101]	/* MoveIndirectRelPt */
SRP1[ ]	/* SetRefPoint1 */
IP[ ]	/* InterpolatePts */
IUP[1]	/* InterpolateUntPts */
IUP[0]	/* InterpolateUntPts */";
};
width = 1114;
}
);
note = spacemark;
unicode = 86;
}
{
glyphname = nobreakspacemark;
layers = (
{
layerId = m01;
shapes = (
{
closed = 1;
nodes = (
(170,-134,l),
(170,-345,l),
(945,-345,l),
(945,-134,l),
(1115,-134,l),
(1115,0,l),
(817,0,l),
(817,-211,l),
(298,-211,l),
(298,0,l),
(0,0,l),
(0,-134,l)
);
}
);
userData = {
assembly = "NPUSHB[ ]	/* 11 values pushed */
2 254 9 7 4 11 254 0 0 9 3
PUSHW[ ]	/* 8 values pushed */
256 8 274 6 2 256 9 274
PUSHB[ ]	/* 3 values pushed */
6 221 11
MDAP[1]	/* MoveDirectAbsPt */
MIRP[01101]	/* MoveIndirectRelPt */
MIRP[10100]	/* MoveIndirectRelPt */
MIRP[01101]	/* MoveIndirectRelPt */
SRP0[ ]	/* SetRefPoint0 */
MIRP[10100]	/* MoveIndirectRelPt */
MIRP[01101]	/* MoveIndirectRelPt */
SVTCA[0]	/* SetFreedomAndProjectionVectorToAxis */
MDAP[1]	/* MoveDirectAbsPt */
MIAP[1]	/* MoveIndirectAbsPt */
MIRP[01101]	/* MoveIndirectRelPt */
IP[ ]	/* InterpolatePts */
IP[ ]	/* InterpolatePts */
SRP0[ ]	/* SetRefPoint0 */
MIRP[01101]	/* MoveIndirectRelPt */
IUP[1]	/* InterpolateUntPts */
IUP[0]	/* InterpolateUntPts */";
};
width = 1115;
}
);
note = nobreakspacemark;
unicode = 87;
}
{
glyphname = shiftlock;
layers = (
{
layerId = m01;
shapes = (
{
closed = 1;
nodes = (
(1107,467,l),
(1107,877,l),
(1441,877,l),
(830,1487,l),
(219,877,l),
(553,877,l),
(553,467,l)
);
},
{
closed = 1;
nodes = (
(1107,0,l),
(1107,320,l),
(553,320,l),
(553,0,l)
);
},
{
closed = 1;
nodes = (
(618,255,l),
(1042,255,l),
(1042,65,l),
(618,65,l)
);
},
{
closed = 1;
nodes = (
(618,942,l),
(378,942,l),
(830,1393,l),
(1282,942,l),
(1042,942,l),
(1042,532,l),
(618,532,l)
);
}
);
userData = {
assembly = "PUSHB[ ]	/* 3 values pushed */
13 7 7
PUSHW[ ]	/* 1 value pushed */
278
NPUSHB[ ]	/* 9 values pushed */
3 4 20 3 3 4 8 7 7
PUSHW[ ]	/* 1 value pushed */
278
NPUSHB[ ]	/* 9 values pushed */
3 2 20 3 3 2 7 3 10
PUSHW[ ]	/* 1 value pushed */
258
PUSHB[ ]	/* 4 values pushed */
0 12 5 2
PUSHW[ ]	/* 8 values pushed */
258 8 21 258 15 277 18 258
NPUSHB[ ]	/* 23 values pushed */
8 0 3 131 14 0 13 4 7 3 19 8 2 10 0 18 135 14 11 6 19 135 4
PUSHW[ ]	/* 6 values pushed */
275 17 276 14 275 2
MDAP[1]	/* MoveDirectAbsPt */
MIRP[10100]	/* MoveIndirectRelPt */
MIRP[11110]	/* MoveIndirectRelPt */
MIRP[00100]	/* MoveIndirectRelPt */
MIRP[01101]	/* MoveIndirectRelPt */
IP[ ]	/* InterpolatePts */
IP[ ]	/* InterpolatePts */
SRP0[ ]	/* SetRefPoint0 */
MIRP[01101]	/* MoveIndirectRelPt */
IP[ ]	/* InterpolatePts */
IP[ ]	/* InterpolatePts */
SRP1[ ]	/* SetRefPoint1 */
SHP[1]	/* ShiftPointByLastPoint */
SRP1[ ]	/* SetRefPoint1 */
IP[ ]	/* InterpolatePts */
IP[ ]	/* InterpolatePts */
SRP1[ ]	/* SetRefPoint1 */
SHP[1]	/* ShiftPointByLastPoint */
SVTCA[0]	/* SetFreedomAndProjectionVectorToAxis */
MIAP[1]	/* MoveIndirectAbsPt */
MIRP[01101]	/* MoveIndirectRelPt */
IP[ ]	/* InterpolatePts */
IP[ ]	/* InterpolatePts */
MIRP[01101]	/* MoveIndirectRelPt */
MIRP[11110]	/* MoveIndirectRelPt */
MIRP[01101]	/* MoveIndirectRelPt */
MDAP[1]	/* MoveDirectAbsPt */
MIRP[01101]	/* MoveIndirectRelPt */
IP[ ]	/* InterpolatePts */
IP[ ]	/* InterpolatePts */
MDAP[1]	/* MoveDirectAbsPt */
MIRP[01101]	/* MoveIndirectRelPt */
SRP1[ ]	/* SetRefPoint1 */
SHP[1]	/* ShiftPointByLastPoint */
IUP[1]	/* InterpolateUntPts */
IUP[0]	/* InterpolateUntPts */
SDPVTL[1]	/* SetDualPVectorToLine */
SFVTPV[ ]	/* SetFVectorToPVector */
MDAP[0]	/* MoveDirectAbsPt */
CALL[ ]	/* CallFunction */
SFVTCA[1]	/* SetFVectorToAxis */
RDTG[ ]	/* RoundDownToGrid */
SRP0[ ]	/* SetRefPoint0 */
MDRP[00100]	/* MoveDirectRelPt */
SDPVTL[1]	/* SetDualPVectorToLine */
SFVTPV[ ]	/* SetFVectorToPVector */
MDAP[0]	/* MoveDirectAbsPt */
RTG[ ]	/* RoundToGrid */
CALL[ ]	/* CallFunction */
SFVTCA[1]	/* SetFVectorToAxis */
RDTG[ ]	/* RoundDownToGrid */
SRP0[ ]	/* SetRefPoint0 */
MDRP[00100]	/* MoveDirectRelPt */";
};
width = 1660;
}
);
note = shiftlock;
unicode = 88;
}
{
glyphname = capslock;
layers = (
{
layerId = m01;
shapes = (
{
closed = 1;
nodes = (
(1107,467,l),
(1107,877,l),
(1441,877,l),
(830,1487,l),
(219,877,l),
(553,877,l),
(553,467,l),
(553,467,l)
);
},
{
closed = 1;
nodes = (
(1107,0,l),
(1107,320,l),
(553,320,l),
(553,0,l),
(553,0,l)
);
},
{
closed = 1;
nodes = (
(618,255,l),
(1042,255,l),
(1042,65,l),
(618,65,l),
(618,65,l)
);
},
{
closed = 1;
nodes = (
(618,942,l),
(378,942,l),
(830,1393,l),
(1282,942,l),
(1042,942,l),
(1042,532,l),
(618,532,l),
(618,532,l)
);
},
{
closed = 1;
nodes = (
(453,1057,l),
(1207,1057,l),
(1142,1122,l),
(518,1122,l),
(518,1122,l)
);
}
);
userData = {
assembly = "PUSHB[ ]	/* 3 values pushed */
10 11 11
PUSHW[ ]	/* 1 value pushed */
278
PUSHB[ ]	/* 7 values pushed */
3 4 20 3 9 7 7
PUSHW[ ]	/* 1 value pushed */
278
NPUSHB[ ]	/* 9 values pushed */
3 4 20 3 3 4 7 8 8
PUSHW[ ]	/* 1 value pushed */
278
PUSHB[ ]	/* 7 values pushed */
2 3 20 2 12 13 13
PUSHW[ ]	/* 1 value pushed */
278
NPUSHB[ ]	/* 10 values pushed */
2 3 20 2 2 3 7 3 8 15
PUSHW[ ]	/* 4 values pushed */
258 0 12 258
PUSHB[ ]	/* 4 values pushed */
8 17 5 2
PUSHW[ ]	/* 8 values pushed */
258 13 25 258 19 277 22 258
NPUSHB[ ]	/* 36 values pushed */
0 13 8 3 18 3 0 3 131 18 0 11 10 4 21 7 3 23 22 13 12 2 0 8 15 3 22 135 18 6 9 16 3 23 135 4
PUSHW[ ]	/* 6 values pushed */
275 21 276 18 275 2
MDAP[1]	/* MoveDirectAbsPt */
MIRP[10100]	/* MoveIndirectRelPt */
MIRP[11110]	/* MoveIndirectRelPt */
MIRP[00100]	/* MoveIndirectRelPt */
MIRP[01101]	/* MoveIndirectRelPt */
SLOOP[ ]	/* SetLoopVariable */
IP[ ]	/* InterpolatePts */
SRP0[ ]	/* SetRefPoint0 */
MIRP[01101]	/* MoveIndirectRelPt */
SLOOP[ ]	/* SetLoopVariable */
IP[ ]	/* InterpolatePts */
SRP2[ ]	/* SetRefPoint2 */
IP[ ]	/* InterpolatePts */
IP[ ]	/* InterpolatePts */
SRP1[ ]	/* SetRefPoint1 */
SRP2[ ]	/* SetRefPoint2 */
IP[ ]	/* InterpolatePts */
IP[ ]	/* InterpolatePts */
SRP1[ ]	/* SetRefPoint1 */
SRP2[ ]	/* SetRefPoint2 */
IP[ ]	/* InterpolatePts */
IP[ ]	/* InterpolatePts */
SVTCA[0]	/* SetFreedomAndProjectionVectorToAxis */
MIAP[1]	/* MoveIndirectAbsPt */
MIRP[01101]	/* MoveIndirectRelPt */
SRP1[ ]	/* SetRefPoint1 */
SHP[1]	/* ShiftPointByLastPoint */
SRP1[ ]	/* SetRefPoint1 */
SLOOP[ ]	/* SetLoopVariable */
IP[ ]	/* InterpolatePts */
MIRP[01101]	/* MoveIndirectRelPt */
MIRP[11110]	/* MoveIndirectRelPt */
MIRP[01101]	/* MoveIndirectRelPt */
MDAP[1]	/* MoveDirectAbsPt */
MIRP[01101]	/* MoveIndirectRelPt */
IP[ ]	/* InterpolatePts */
IP[ ]	/* InterpolatePts */
MDAP[1]	/* MoveDirectAbsPt */
MIRP[01101]	/* MoveIndirectRelPt */
MDAP[1]	/* MoveDirectAbsPt */
MIRP[01101]	/* MoveIndirectRelPt */
SRP1[ ]	/* SetRefPoint1 */
SRP2[ ]	/* SetRefPoint2 */
IP[ ]	/* InterpolatePts */
IUP[1]	/* InterpolateUntPts */
IUP[0]	/* InterpolateUntPts */
SDPVTL[1]	/* SetDualPVectorToLine */
SFVTCA[1]	/* SetFVectorToAxis */
MDAP[0]	/* MoveDirectAbsPt */
CALL[ ]	/* CallFunction */
RDTG[ ]	/* RoundDownToGrid */
SRP0[ ]	/* SetRefPoint0 */
MDRP[00100]	/* MoveDirectRelPt */
MDAP[0]	/* MoveDirectAbsPt */
RTG[ ]	/* RoundToGrid */
CALL[ ]	/* CallFunction */
SFVTPV[ ]	/* SetFVectorToPVector */
RDTG[ ]	/* RoundDownToGrid */
SRP0[ ]	/* SetRefPoint0 */
MDRP[00100]	/* MoveDirectRelPt */
SDPVTL[1]	/* SetDualPVectorToLine */
SFVTPV[ ]	/* SetFVectorToPVector */
MDAP[0]	/* MoveDirectAbsPt */
RTG[ ]	/* RoundToGrid */
CALL[ ]	/* CallFunction */
SFVTCA[1]	/* SetFVectorToAxis */
RDTG[ ]	/* RoundDownToGrid */
SRP0[ ]	/* SetRefPoint0 */
MDRP[00100]	/* MoveDirectRelPt */
MDAP[0]	/* MoveDirectAbsPt */
RTG[ ]	/* RoundToGrid */
CALL[ ]	/* CallFunction */
RDTG[ ]	/* RoundDownToGrid */
SRP0[ ]	/* SetRefPoint0 */
MDRP[00100]	/* MoveDirectRelPt */";
};
width = 1660;
}
);
note = capslock;
unicode = 89;
}
{
glyphname = oleftshadow;
layers = (
{
layerId = m01;
shapes = (
{
closed = 1;
nodes = (
(857,105,l),
(857,177,l),
(1643,177,l),
(1818,354,l),
(1818,1015,l),
(857,1015,l),
(857,1269,l),
(72,585,l),
(706,0,l)
);
},
{
closed = 1;
nodes = (
(277,670,l),
(800,1126,l),
(800,954,l),
(1756,954,l),
(1756,386,l),
(800,386,l),
(800,196,l)
);
}
);
userData = {
assembly = "PUSHB[ ]	/* 3 values pushed */
10 9 9
PUSHW[ ]	/* 1 value pushed */
281
NPUSHB[ ]	/* 9 values pushed */
6 5 20 6 6 5 15 9 9
PUSHW[ ]	/* 1 value pushed */
278
NPUSHB[ ]	/* 17 values pushed */
6 7 20 6 6 7 15 7 8 9 6 14 11 4 3 5 14
PUSHW[ ]	/* 1 value pushed */
258
PUSHB[ ]	/* 4 values pushed */
8 10 1 11
PUSHW[ ]	/* 1 value pushed */
280
NPUSHB[ ]	/* 23 values pushed */
3 8 3 7 228 5 0 2 12 4 9 5 6 8 14 15 3 4 135 10 12 135 10
PUSHW[ ]	/* 1 value pushed */
279
PUSHB[ ]	/* 3 values pushed */
1 132 6
MDAP[1]	/* MoveDirectAbsPt */
MIRP[11101]	/* MoveIndirectRelPt */
MIRP[01101]	/* MoveIndirectRelPt */
MIRP[01101]	/* MoveIndirectRelPt */
SRP0[ ]	/* SetRefPoint0 */
MIRP[01101]	/* MoveIndirectRelPt */
SLOOP[ ]	/* SetLoopVariable */
IP[ ]	/* InterpolatePts */
SRP2[ ]	/* SetRefPoint2 */
IP[ ]	/* InterpolatePts */
IP[ ]	/* InterpolatePts */
SRP1[ ]	/* SetRefPoint1 */
SRP2[ ]	/* SetRefPoint2 */
IP[ ]	/* InterpolatePts */
SVTCA[0]	/* SetFreedomAndProjectionVectorToAxis */
MIAP[1]	/* MoveIndirectAbsPt */
MIRP[01101]	/* MoveIndirectRelPt */
IP[ ]	/* InterpolatePts */
IP[ ]	/* InterpolatePts */
MDAP[1]	/* MoveDirectAbsPt */
MIRP[01101]	/* MoveIndirectRelPt */
IP[ ]	/* InterpolatePts */
IP[ ]	/* InterpolatePts */
MDAP[1]	/* MoveDirectAbsPt */
MIRP[01101]	/* MoveIndirectRelPt */
SRP1[ ]	/* SetRefPoint1 */
SRP2[ ]	/* SetRefPoint2 */
IP[ ]	/* InterpolatePts */
SRP1[ ]	/* SetRefPoint1 */
SRP2[ ]	/* SetRefPoint2 */
IP[ ]	/* InterpolatePts */
IP[ ]	/* InterpolatePts */
SRP1[ ]	/* SetRefPoint1 */
SRP2[ ]	/* SetRefPoint2 */
IP[ ]	/* InterpolatePts */
IUP[1]	/* InterpolateUntPts */
IUP[0]	/* InterpolateUntPts */
SDPVTL[1]	/* SetDualPVectorToLine */
SFVTPV[ ]	/* SetFVectorToPVector */
MDAP[0]	/* MoveDirectAbsPt */
CALL[ ]	/* CallFunction */
SFVTCA[0]	/* SetFVectorToAxis */
RDTG[ ]	/* RoundDownToGrid */
SRP0[ ]	/* SetRefPoint0 */
MDRP[00100]	/* MoveDirectRelPt */
SDPVTL[1]	/* SetDualPVectorToLine */
SFVTPV[ ]	/* SetFVectorToPVector */
MDAP[0]	/* MoveDirectAbsPt */
RTG[ ]	/* RoundToGrid */
CALL[ ]	/* CallFunction */
SFVTCA[0]	/* SetFVectorToAxis */
RDTG[ ]	/* RoundDownToGrid */
SRP0[ ]	/* SetRefPoint0 */
MDRP[00100]	/* MoveDirectRelPt */";
};
width = 1930;
}
);
note = oleftshadow;
unicode = 90;
}
{
glyphname = oleftshadup;
layers = (
{
layerId = m01;
shapes = (
{
closed = 1;
nodes = (
(837,236,l),
(1756,236,l),
(1756,868,l),
(1589,1037,l),
(837,1037,l),
(837,1105,l),
(693,1206,l),
(86,646,l),
(837,-7,l),
(837,-7,l)
);
},
{
closed = 1;
nodes = (
(282,565,l),
(783,1019,l),
(783,837,l),
(1697,837,l),
(1697,294,l),
(783,294,l),
(783,130,l),
(783,130,l)
);
}
);
userData = {
assembly = "PUSHB[ ]	/* 3 values pushed */
10 9 9
PUSHW[ ]	/* 1 value pushed */
278
NPUSHB[ ]	/* 9 values pushed */
3 2 20 3 3 2 15 9 9
PUSHW[ ]	/* 1 value pushed */
281
NPUSHB[ ]	/* 16 values pushed */
3 4 20 3 3 4 5 4 6 9 3 14 11 10 2 11
PUSHW[ ]	/* 1 value pushed */
258
PUSHB[ ]	/* 4 values pushed */
1 15 8 14
PUSHW[ ]	/* 1 value pushed */
280
NPUSHB[ ]	/* 22 values pushed */
6 6 1 4 228 2 0 7 12 2 9 4 10 3 12 135 0 14 6 2 135 10
PUSHW[ ]	/* 1 value pushed */
279
PUSHB[ ]	/* 3 values pushed */
0 132 3
MDAP[1]	/* MoveDirectAbsPt */
MIRP[11101]	/* MoveIndirectRelPt */
MIRP[11101]	/* MoveIndirectRelPt */
MIRP[01101]	/* MoveIndirectRelPt */
IP[ ]	/* InterpolatePts */
IP[ ]	/* InterpolatePts */
SRP0[ ]	/* SetRefPoint0 */
MIRP[01101]	/* MoveIndirectRelPt */
SRP1[ ]	/* SetRefPoint1 */
SRP2[ ]	/* SetRefPoint2 */
IP[ ]	/* InterpolatePts */
IP[ ]	/* InterpolatePts */
SRP1[ ]	/* SetRefPoint1 */
SRP2[ ]	/* SetRefPoint2 */
IP[ ]	/* InterpolatePts */
SVTCA[0]	/* SetFreedomAndProjectionVectorToAxis */
MIAP[1]	/* MoveIndirectAbsPt */
MIRP[01101]	/* MoveIndirectRelPt */
IP[ ]	/* InterpolatePts */
IP[ ]	/* InterpolatePts */
MDAP[1]	/* MoveDirectAbsPt */
MIRP[01101]	/* MoveIndirectRelPt */
IP[ ]	/* InterpolatePts */
IP[ ]	/* InterpolatePts */
MDAP[1]	/* MoveDirectAbsPt */
MIRP[01101]	/* MoveIndirectRelPt */
SRP2[ ]	/* SetRefPoint2 */
IP[ ]	/* InterpolatePts */
SRP1[ ]	/* SetRefPoint1 */
SRP2[ ]	/* SetRefPoint2 */
IP[ ]	/* InterpolatePts */
IP[ ]	/* InterpolatePts */
SRP1[ ]	/* SetRefPoint1 */
SRP2[ ]	/* SetRefPoint2 */
IP[ ]	/* InterpolatePts */
IUP[1]	/* InterpolateUntPts */
IUP[0]	/* InterpolateUntPts */
SDPVTL[1]	/* SetDualPVectorToLine */
SFVTPV[ ]	/* SetFVectorToPVector */
MDAP[0]	/* MoveDirectAbsPt */
CALL[ ]	/* CallFunction */
SFVTCA[0]	/* SetFVectorToAxis */
RDTG[ ]	/* RoundDownToGrid */
SRP0[ ]	/* SetRefPoint0 */
MDRP[00100]	/* MoveDirectRelPt */
SDPVTL[1]	/* SetDualPVectorToLine */
SFVTPV[ ]	/* SetFVectorToPVector */
MDAP[0]	/* MoveDirectAbsPt */
RTG[ ]	/* RoundToGrid */
CALL[ ]	/* CallFunction */
SFVTCA[0]	/* SetFVectorToAxis */
RDTG[ ]	/* RoundDownToGrid */
SRP0[ ]	/* SetRefPoint0 */
MDRP[00100]	/* MoveDirectRelPt */";
};
width = 1930;
}
);
note = oleftshadup;
unicode = 92;
}
{
glyphname = oleftshadlft;
layers = (
{
layerId = m01;
shapes = (
{
closed = 1;
nodes = (
(887,424,l),
(1754,424,l),
(1754,1083,l),
(887,1083,l),
(887,1407,l),
(130,756,l),
(887,79,l),
(887,79,l)
);
},
{
closed = 1;
nodes = (
(307,754,l),
(795,1189,l),
(795,991,l),
(1666,991,l),
(1666,516,l),
(795,516,l),
(795,300,l),
(795,300,l)
);
}
);
userData = {
assembly = "NPUSHB[ ]	/* 27 values pushed */
10 9 9 255 2 1 20 2 2 1 15 9 9 255 2 3 20 2 2 3 9 2 14 11 10 1 11
PUSHW[ ]	/* 1 value pushed */
258
NPUSHB[ ]	/* 24 values pushed */
8 15 14 203 3 100 5 166 8 100 1 9 2 1 3 5 14 4 0 135 10 12 135 10
PUSHW[ ]	/* 1 value pushed */
279
PUSHB[ ]	/* 3 values pushed */
7 132 2
MDAP[1]	/* MoveDirectAbsPt */
MIRP[11101]	/* MoveIndirectRelPt */
MIRP[01101]	/* MoveIndirectRelPt */
MIRP[01101]	/* MoveIndirectRelPt */
SRP0[ ]	/* SetRefPoint0 */
MIRP[01101]	/* MoveIndirectRelPt */
SLOOP[ ]	/* SetLoopVariable */
IP[ ]	/* InterpolatePts */
SRP2[ ]	/* SetRefPoint2 */
IP[ ]	/* InterpolatePts */
SVTCA[0]	/* SetFreedomAndProjectionVectorToAxis */
MDAP[1]	/* MoveDirectAbsPt */
MIRP[10100]	/* MoveIndirectRelPt */
MIRP[11101]	/* MoveIndirectRelPt */
MIRP[10100]	/* MoveIndirectRelPt */
MIRP[01101]	/* MoveIndirectRelPt */
IP[ ]	/* InterpolatePts */
SRP0[ ]	/* SetRefPoint0 */
MIRP[01101]	/* MoveIndirectRelPt */
SRP2[ ]	/* SetRefPoint2 */
IP[ ]	/* InterpolatePts */
SRP1[ ]	/* SetRefPoint1 */
SRP2[ ]	/* SetRefPoint2 */
IP[ ]	/* InterpolatePts */
IP[ ]	/* InterpolatePts */
IUP[1]	/* InterpolateUntPts */
IUP[0]	/* InterpolateUntPts */
SDPVTL[1]	/* SetDualPVectorToLine */
SFVTPV[ ]	/* SetFVectorToPVector */
MDAP[0]	/* MoveDirectAbsPt */
CALL[ ]	/* CallFunction */
SFVTCA[0]	/* SetFVectorToAxis */
RDTG[ ]	/* RoundDownToGrid */
SRP0[ ]	/* SetRefPoint0 */
MDRP[00100]	/* MoveDirectRelPt */
SDPVTL[1]	/* SetDualPVectorToLine */
SFVTPV[ ]	/* SetFVectorToPVector */
MDAP[0]	/* MoveDirectAbsPt */
RTG[ ]	/* RoundToGrid */
CALL[ ]	/* CallFunction */
SFVTCA[0]	/* SetFVectorToAxis */
RDTG[ ]	/* RoundDownToGrid */
SRP0[ ]	/* SetRefPoint0 */
MDRP[00100]	/* MoveDirectRelPt */";
};
width = 1924;
}
);
note = oleftshadlft;
unicode = 94;
}
{
glyphname = oleftshadrt;
layers = (
{
layerId = m01;
shapes = (
{
closed = 1;
nodes = (
(879,424,l),
(1756,424,l),
(1756,1083,l),
(879,1083,l),
(879,1407,l),
(132,756,l),
(879,79,l)
);
},
{
closed = 1;
nodes = (
(321,754,l),
(822,1189,l),
(822,1026,l),
(1696,1026,l),
(1696,482,l),
(822,482,l),
(822,300,l)
);
}
);
userData = {
assembly = "PUSHB[ ]	/* 3 values pushed */
10 9 9
PUSHW[ ]	/* 1 value pushed */
278
NPUSHB[ ]	/* 9 values pushed */
5 4 20 5 5 4 15 9 9
PUSHW[ ]	/* 1 value pushed */
278
NPUSHB[ ]	/* 16 values pushed */
5 6 20 5 5 6 9 5 14 11 10 2 4 15 6 14
PUSHW[ ]	/* 4 values pushed */
258 8 11 258
NPUSHB[ ]	/* 16 values pushed */
2 6 100 8 166 2 100 4 9 5 4 6 8 14 4 3
PUSHW[ ]	/* 4 values pushed */
259 10 12 259
PUSHB[ ]	/* 5 values pushed */
1 10 1 132 5
MDAP[1]	/* MoveDirectAbsPt */
MIRP[01101]	/* MoveIndirectRelPt */
IP[ ]	/* InterpolatePts */
SRP0[ ]	/* SetRefPoint0 */
MIRP[01101]	/* MoveIndirectRelPt */
MDAP[1]	/* MoveDirectAbsPt */
MIRP[01101]	/* MoveIndirectRelPt */
SLOOP[ ]	/* SetLoopVariable */
IP[ ]	/* InterpolatePts */
SRP2[ ]	/* SetRefPoint2 */
IP[ ]	/* InterpolatePts */
SVTCA[0]	/* SetFreedomAndProjectionVectorToAxis */
MDAP[1]	/* MoveDirectAbsPt */
MIRP[10100]	/* MoveIndirectRelPt */
MIRP[11101]	/* MoveIndirectRelPt */
MIRP[00100]	/* MoveIndirectRelPt */
SRP0[ ]	/* SetRefPoint0 */
MIRP[01101]	/* MoveIndirectRelPt */
SRP0[ ]	/* SetRefPoint0 */
MIRP[01101]	/* MoveIndirectRelPt */
SRP1[ ]	/* SetRefPoint1 */
IP[ ]	/* InterpolatePts */
SRP1[ ]	/* SetRefPoint1 */
SRP2[ ]	/* SetRefPoint2 */
IP[ ]	/* InterpolatePts */
SRP1[ ]	/* SetRefPoint1 */
SRP2[ ]	/* SetRefPoint2 */
IP[ ]	/* InterpolatePts */
IP[ ]	/* InterpolatePts */
IUP[1]	/* InterpolateUntPts */
IUP[0]	/* InterpolateUntPts */
SDPVTL[1]	/* SetDualPVectorToLine */
SFVTPV[ ]	/* SetFVectorToPVector */
MDAP[0]	/* MoveDirectAbsPt */
CALL[ ]	/* CallFunction */
SFVTCA[0]	/* SetFVectorToAxis */
RDTG[ ]	/* RoundDownToGrid */
SRP0[ ]	/* SetRefPoint0 */
MDRP[00100]	/* MoveDirectRelPt */
SDPVTL[1]	/* SetDualPVectorToLine */
SFVTPV[ ]	/* SetFVectorToPVector */
MDAP[0]	/* MoveDirectAbsPt */
RTG[ ]	/* RoundToGrid */
CALL[ ]	/* CallFunction */
SFVTCA[0]	/* SetFVectorToAxis */
RDTG[ ]	/* RoundDownToGrid */
SRP0[ ]	/* SetRefPoint0 */
MDRP[00100]	/* MoveDirectRelPt */";
};
width = 1924;
}
);
note = oleftshadrt;
unicode = 96;
}
{
glyphname = oleftoblqshad;
layers = (
{
layerId = m01;
shapes = (
{
closed = 1;
nodes = (
(927,194,l),
(907,262,l),
(1659,262,l),
(1782,431,l),
(1611,1063,l),
(693,1063,l),
(628,1306,l),
(52,653,l),
(810,93,l),
(810,93,l)
);
},
{
closed = 1;
nodes = (
(227,734,l),
(610,1169,l),
(655,1006,l),
(1569,1006,l),
(1715,462,l),
(799,462,l),
(849,280,l),
(849,280,l)
);
}
);
userData = {
assembly = "PUSHB[ ]	/* 3 values pushed */
14 15 15
PUSHW[ ]	/* 1 value pushed */
278
NPUSHB[ ]	/* 11 values pushed */
7 3 20 7 15 9 7 3 12 13 13
PUSHW[ ]	/* 1 value pushed */
278
NPUSHB[ ]	/* 11 values pushed */
0 1 20 0 0 1 10 9 10 11 9
PUSHW[ ]	/* 1 value pushed */
284
NPUSHB[ ]	/* 11 values pushed */
5 4 20 5 5 4 15 9 15 14 9
PUSHW[ ]	/* 1 value pushed */
278
NPUSHB[ ]	/* 17 values pushed */
6 7 20 6 9 10 6 7 15 7 8 5 6 9 3 11 14
PUSHW[ ]	/* 1 value pushed */
258
PUSHB[ ]	/* 5 values pushed */
8 171 10 1 11
PUSHW[ ]	/* 1 value pushed */
283
NPUSHB[ ]	/* 20 values pushed */
3 3 7 226 4 0 0 12 13 3 2 7 8 9 10 11 14 15 7 4
PUSHW[ ]	/* 1 value pushed */
282
PUSHB[ ]	/* 3 values pushed */
2 132 5
MDAP[1]	/* MoveDirectAbsPt */
MIRP[01101]	/* MoveIndirectRelPt */
MIRP[01100]	/* MoveIndirectRelPt */
SLOOP[ ]	/* SetLoopVariable */
IP[ ]	/* InterpolatePts */
SRP1[ ]	/* SetRefPoint1 */
SLOOP[ ]	/* SetLoopVariable */
IP[ ]	/* InterpolatePts */
SVTCA[0]	/* SetFreedomAndProjectionVectorToAxis */
MIAP[1]	/* MoveIndirectAbsPt */
MIRP[01101]	/* MoveIndirectRelPt */
IP[ ]	/* InterpolatePts */
MDAP[1]	/* MoveDirectAbsPt */
MIRP[01101]	/* MoveIndirectRelPt */
IP[ ]	/* InterpolatePts */
IP[ ]	/* InterpolatePts */
MIRP[11101]	/* MoveIndirectRelPt */
MIRP[01101]	/* MoveIndirectRelPt */
SRP1[ ]	/* SetRefPoint1 */
SLOOP[ ]	/* SetLoopVariable */
IP[ ]	/* InterpolatePts */
SRP1[ ]	/* SetRefPoint1 */
SRP2[ ]	/* SetRefPoint2 */
IP[ ]	/* InterpolatePts */
IUP[1]	/* InterpolateUntPts */
IUP[0]	/* InterpolateUntPts */
SDPVTL[1]	/* SetDualPVectorToLine */
SFVTL[0]	/* SetFVectorToLine */
MDAP[0]	/* MoveDirectAbsPt */
CALL[ ]	/* CallFunction */
SFVTL[0]	/* SetFVectorToLine */
RDTG[ ]	/* RoundDownToGrid */
SRP0[ ]	/* SetRefPoint0 */
MDRP[00100]	/* MoveDirectRelPt */
SDPVTL[1]	/* SetDualPVectorToLine */
SFVTPV[ ]	/* SetFVectorToPVector */
MDAP[0]	/* MoveDirectAbsPt */
RTG[ ]	/* RoundToGrid */
CALL[ ]	/* CallFunction */
SFVTL[0]	/* SetFVectorToLine */
RDTG[ ]	/* RoundDownToGrid */
SRP0[ ]	/* SetRefPoint0 */
MDRP[00100]	/* MoveDirectRelPt */
SDPVTL[1]	/* SetDualPVectorToLine */
SFVTCA[1]	/* SetFVectorToAxis */
MDAP[0]	/* MoveDirectAbsPt */
RTG[ ]	/* RoundToGrid */
CALL[ ]	/* CallFunction */
RDTG[ ]	/* RoundDownToGrid */
SRP0[ ]	/* SetRefPoint0 */
MDRP[00100]	/* MoveDirectRelPt */
SDPVTL[1]	/* SetDualPVectorToLine */
SFVTL[0]	/* SetFVectorToLine */
MDAP[0]	/* MoveDirectAbsPt */
RTG[ ]	/* RoundToGrid */
CALL[ ]	/* CallFunction */
SFVTCA[1]	/* SetFVectorToAxis */
RDTG[ ]	/* RoundDownToGrid */
SRP0[ ]	/* SetRefPoint0 */
MDRP[00100]	/* MoveDirectRelPt */";
};
width = 1930;
}
);
note = oleftoblqshad;
unicode = 98;
}
{
glyphname = oleftoblqshadup;
layers = (
{
layerId = m01;
shapes = (
{
closed = 1;
nodes = (
(52,746,l),
(628,93,l),
(693,336,l),
(1611,336,l),
(1782,968,l),
(1659,1137,l),
(907,1137,l),
(927,1205,l),
(810,1306,l)
);
},
{
closed = 1;
nodes = (
(799,937,l),
(1715,937,l),
(1569,393,l),
(655,393,l),
(610,230,l),
(227,665,l),
(849,1119,l)
);
}
);
userData = {
assembly = "PUSHB[ ]	/* 3 values pushed */
11 10 10
PUSHW[ ]	/* 1 value pushed */
278
NPUSHB[ ]	/* 11 values pushed */
2 1 20 2 10 9 2 1 13 12 12
PUSHW[ ]	/* 1 value pushed */
278
NPUSHB[ ]	/* 11 values pushed */
0 8 20 0 0 8 10 9 10 11 9
PUSHW[ ]	/* 1 value pushed */
278
NPUSHB[ ]	/* 13 values pushed */
3 2 20 3 9 15 3 2 15 9 15 14 9
PUSHW[ ]	/* 1 value pushed */
284
NPUSHB[ ]	/* 18 values pushed */
4 5 20 4 4 5 3 4 9 3 14 11 10 1 2 15 8 14
PUSHW[ ]	/* 4 values pushed */
283 6 11 258
NPUSHB[ ]	/* 28 values pushed */
1 171 6 6 5 226 2 0 12 13 3 8 120 14 1 1 2 9 10 11 14 15 7 6 213 8 132 3
MDAP[1]	/* MoveDirectAbsPt */
MIRP[01101]	/* MoveIndirectRelPt */
MIRP[01101]	/* MoveIndirectRelPt */
SLOOP[ ]	/* SetLoopVariable */
IP[ ]	/* InterpolatePts */
DELTAP1[ ]	/* DeltaExceptionP1 */
SRP1[ ]	/* SetRefPoint1 */
SLOOP[ ]	/* SetLoopVariable */
IP[ ]	/* InterpolatePts */
SVTCA[0]	/* SetFreedomAndProjectionVectorToAxis */
MDAP[1]	/* MoveDirectAbsPt */
MIRP[01101]	/* MoveIndirectRelPt */
IP[ ]	/* InterpolatePts */
MDAP[1]	/* MoveDirectAbsPt */
MIRP[11101]	/* MoveIndirectRelPt */
MIRP[01101]	/* MoveIndirectRelPt */
SRP0[ ]	/* SetRefPoint0 */
MIRP[01101]	/* MoveIndirectRelPt */
IP[ ]	/* InterpolatePts */
IP[ ]	/* InterpolatePts */
SRP1[ ]	/* SetRefPoint1 */
SRP2[ ]	/* SetRefPoint2 */
IP[ ]	/* InterpolatePts */
SRP1[ ]	/* SetRefPoint1 */
SRP2[ ]	/* SetRefPoint2 */
SLOOP[ ]	/* SetLoopVariable */
IP[ ]	/* InterpolatePts */
IUP[1]	/* InterpolateUntPts */
IUP[0]	/* InterpolateUntPts */
SDPVTL[1]	/* SetDualPVectorToLine */
SFVTPV[ ]	/* SetFVectorToPVector */
MDAP[0]	/* MoveDirectAbsPt */
CALL[ ]	/* CallFunction */
SFVTL[0]	/* SetFVectorToLine */
RDTG[ ]	/* RoundDownToGrid */
SRP0[ ]	/* SetRefPoint0 */
MDRP[00100]	/* MoveDirectRelPt */
SDPVTL[1]	/* SetDualPVectorToLine */
SFVTL[0]	/* SetFVectorToLine */
MDAP[0]	/* MoveDirectAbsPt */
RTG[ ]	/* RoundToGrid */
CALL[ ]	/* CallFunction */
SFVTL[0]	/* SetFVectorToLine */
RDTG[ ]	/* RoundDownToGrid */
SRP0[ ]	/* SetRefPoint0 */
MDRP[00100]	/* MoveDirectRelPt */
SDPVTL[1]	/* SetDualPVectorToLine */
SFVTCA[1]	/* SetFVectorToAxis */
MDAP[0]	/* MoveDirectAbsPt */
RTG[ ]	/* RoundToGrid */
CALL[ ]	/* CallFunction */
RDTG[ ]	/* RoundDownToGrid */
SRP0[ ]	/* SetRefPoint0 */
MDRP[00100]	/* MoveDirectRelPt */
SDPVTL[1]	/* SetDualPVectorToLine */
SFVTL[0]	/* SetFVectorToLine */
MDAP[0]	/* MoveDirectAbsPt */
RTG[ ]	/* RoundToGrid */
CALL[ ]	/* CallFunction */
SFVTCA[1]	/* SetFVectorToAxis */
RDTG[ ]	/* RoundDownToGrid */
SRP0[ ]	/* SetRefPoint0 */
MDRP[00100]	/* MoveDirectRelPt */";
};
width = 1931;
}
);
note = oleftoblqshadup;
unicode = 100;
}
{
glyphname = b2left;
layers = (
{
layerId = m01;
shapes = (
{
closed = 1;
nodes = (
(761,309,l),
(414,675,l),
(1645,675,l),
(1645,806,l),
(412,806,l),
(759,1171,l),
(588,1171,l),
(173,740,l),
(589,309,l),
(589,309,l)
);
}
);
userData = {
assembly = "PUSHB[ ]	/* 3 values pushed */
0 8 1
PUSHW[ ]	/* 1 value pushed */
285
PUSHB[ ]	/* 3 values pushed */
3 254 6
PUSHW[ ]	/* 1 value pushed */
285
NPUSHB[ ]	/* 11 values pushed */
8 1 2 3 6 7 8 6 5 91 0
MDAP[1]	/* MoveDirectAbsPt */
MIRP[01101]	/* MoveIndirectRelPt */
SLOOP[ ]	/* SetLoopVariable */
IP[ ]	/* InterpolatePts */
SVTCA[0]	/* SetFreedomAndProjectionVectorToAxis */
MDAP[1]	/* MoveDirectAbsPt */
MIRP[11101]	/* MoveIndirectRelPt */
MIRP[11101]	/* MoveIndirectRelPt */
MIRP[01101]	/* MoveIndirectRelPt */
SRP1[ ]	/* SetRefPoint1 */
IP[ ]	/* InterpolatePts */
IUP[1]	/* InterpolateUntPts */
IUP[0]	/* InterpolateUntPts */";
};
width = 1825;
}
);
note = b2left;
unicode = 102;
}
{
glyphname = b2nw;
layers = (
{
layerId = m01;
shapes = (
{
closed = 1;
nodes = (
(284,543,l),
(297,1047,l),
(1167,177,l),
(1260,269,l),
(388,1141,l),
(892,1154,l),
(771,1275,l),
(173,1263,l),
(162,665,l)
);
}
);
userData = {
assembly = "NPUSHB[ ]	/* 28 values pushed */
4 3 3 255 6 5 20 6 6 5 4 6 7 8 4 5 3 254 0 126 5 1 2 3 5 4 4 7
PUSHW[ ]	/* 3 values pushed */
286 6 256
PUSHB[ ]	/* 3 values pushed */
4 221 8
MDAP[1]	/* MoveDirectAbsPt */
MIRP[01101]	/* MoveIndirectRelPt */
MIRP[11101]	/* MoveIndirectRelPt */
MIRP[10100]	/* MoveIndirectRelPt */
SRP1[ ]	/* SetRefPoint1 */
SLOOP[ ]	/* SetLoopVariable */
IP[ ]	/* InterpolatePts */
SVTCA[0]	/* SetFreedomAndProjectionVectorToAxis */
MDAP[1]	/* MoveDirectAbsPt */
MIRP[11101]	/* MoveIndirectRelPt */
MIRP[01101]	/* MoveIndirectRelPt */
SRP1[ ]	/* SetRefPoint1 */
SLOOP[ ]	/* SetLoopVariable */
IP[ ]	/* InterpolatePts */
IUP[1]	/* InterpolateUntPts */
IUP[0]	/* InterpolateUntPts */
SDPVTL[1]	/* SetDualPVectorToLine */
SFVTCA[1]	/* SetFVectorToAxis */
MDAP[0]	/* MoveDirectAbsPt */
CALL[ ]	/* CallFunction */
SFVTPV[ ]	/* SetFVectorToPVector */
RDTG[ ]	/* RoundDownToGrid */
SRP0[ ]	/* SetRefPoint0 */
MDRP[00100]	/* MoveDirectRelPt */";
};
width = 1444;
}
);
note = b2nw;
unicode = 106;
}
{
glyphname = b2sw;
layers = (
{
layerId = m01;
shapes = (
{
closed = 1;
nodes = (
(892,325,l),
(388,338,l),
(1260,1210,l),
(1167,1302,l),
(297,432,l),
(284,936,l),
(162,814,l),
(173,216,l),
(771,204,l)
);
}
);
userData = {
assembly = "NPUSHB[ ]	/* 28 values pushed */
4 3 3 255 6 5 20 6 6 5 1 2 3 5 4 4 6 254 4 126 0 4 6 7 8 4 5 3
PUSHW[ ]	/* 1 value pushed */
256
PUSHB[ ]	/* 3 values pushed */
5 221 0
MDAP[1]	/* MoveDirectAbsPt */
MIRP[01101]	/* MoveIndirectRelPt */
MIRP[11101]	/* MoveIndirectRelPt */
SRP1[ ]	/* SetRefPoint1 */
SLOOP[ ]	/* SetLoopVariable */
IP[ ]	/* InterpolatePts */
SVTCA[0]	/* SetFreedomAndProjectionVectorToAxis */
MDAP[1]	/* MoveDirectAbsPt */
MIRP[01101]	/* MoveIndirectRelPt */
MIRP[11101]	/* MoveIndirectRelPt */
SRP1[ ]	/* SetRefPoint1 */
SLOOP[ ]	/* SetLoopVariable */
IP[ ]	/* InterpolatePts */
IUP[1]	/* InterpolateUntPts */
IUP[0]	/* InterpolateUntPts */
SDPVTL[1]	/* SetDualPVectorToLine */
MDAP[0]	/* MoveDirectAbsPt */
CALL[ ]	/* CallFunction */
SFVTPV[ ]	/* SetFVectorToPVector */
RDTG[ ]	/* RoundDownToGrid */
SRP0[ ]	/* SetRefPoint0 */
MDRP[00100]	/* MoveDirectRelPt */";
};
width = 1444;
}
);
note = b2sw;
unicode = 108;
}
{
glyphname = b2leftright;
layers = (
{
layerId = m01;
shapes = (
{
closed = 1;
nodes = (
(772,309,l),
(425,675,l),
(1400,675,l),
(1053,309,l),
(1225,309,l),
(1641,740,l),
(1226,1171,l),
(1055,1171,l),
(1402,806,l),
(423,806,l),
(770,1171,l),
(599,1171,l),
(184,740,l),
(600,309,l),
(600,309,l)
);
}
);
userData = {
assembly = "NPUSHB[ ]	/* 52 values pushed */
8 7 7 255 10 9 20 10 10 9 12 13 13 255 10 11 20 10 10 11 1 0 0 255 3 2 20 3 3 2 5 6 6 255 3 4 20 3 3 4 3 4 8 10 12 5 2 5 100 6 254 0
PUSHW[ ]	/* 1 value pushed */
285
NPUSHB[ ]	/* 17 values pushed */
2 0 1 2 4 5 6 7 8 9 11 12 13 12 10 91 3
MDAP[1]	/* MoveDirectAbsPt */
MIRP[01101]	/* MoveIndirectRelPt */
SLOOP[ ]	/* SetLoopVariable */
IP[ ]	/* InterpolatePts */
SVTCA[0]	/* SetFreedomAndProjectionVectorToAxis */
MDAP[1]	/* MoveDirectAbsPt */
MIRP[11101]	/* MoveIndirectRelPt */
MIRP[11101]	/* MoveIndirectRelPt */
MIRP[00100]	/* MoveIndirectRelPt */
SRP1[ ]	/* SetRefPoint1 */
SLOOP[ ]	/* SetLoopVariable */
IP[ ]	/* InterpolatePts */
IUP[1]	/* InterpolateUntPts */
IUP[0]	/* InterpolateUntPts */
SDPVTL[1]	/* SetDualPVectorToLine */
SFVTCA[1]	/* SetFVectorToAxis */
MDAP[0]	/* MoveDirectAbsPt */
CALL[ ]	/* CallFunction */
RDTG[ ]	/* RoundDownToGrid */
SRP0[ ]	/* SetRefPoint0 */
MDRP[00100]	/* MoveDirectRelPt */
SDPVTL[1]	/* SetDualPVectorToLine */
MDAP[0]	/* MoveDirectAbsPt */
RTG[ ]	/* RoundToGrid */
CALL[ ]	/* CallFunction */
RDTG[ ]	/* RoundDownToGrid */
SRP0[ ]	/* SetRefPoint0 */
MDRP[00100]	/* MoveDirectRelPt */
SDPVTL[1]	/* SetDualPVectorToLine */
MDAP[0]	/* MoveDirectAbsPt */
RTG[ ]	/* RoundToGrid */
CALL[ ]	/* CallFunction */
RDTG[ ]	/* RoundDownToGrid */
SRP0[ ]	/* SetRefPoint0 */
MDRP[00100]	/* MoveDirectRelPt */
SDPVTL[1]	/* SetDualPVectorToLine */
MDAP[0]	/* MoveDirectAbsPt */
RTG[ ]	/* RoundToGrid */
CALL[ ]	/* CallFunction */
RDTG[ ]	/* RoundDownToGrid */
SRP0[ ]	/* SetRefPoint0 */
MDRP[00100]	/* MoveDirectRelPt */";
};
width = 1825;
}
);
note = b2leftright;
unicode = 110;
}
{
glyphname = triangleup;
layers = (
{
layerId = m01;
shapes = (
{
closed = 1;
nodes = (
(1860,0,l),
(1006,1480,l),
(151,0,l),
(151,0,l)
);
}
);
userData = {
assembly = "PUSHB[ ]	/* 6 values pushed */
1 131 0 0 1 2
PUSHW[ ]	/* 2 values pushed */
287 0
MDAP[1]	/* MoveDirectAbsPt */
MIRP[01101]	/* MoveIndirectRelPt */
IP[ ]	/* InterpolatePts */
SVTCA[0]	/* SetFreedomAndProjectionVectorToAxis */
MIAP[1]	/* MoveIndirectAbsPt */
MIRP[01101]	/* MoveIndirectRelPt */
IUP[1]	/* InterpolateUntPts */
IUP[0]	/* InterpolateUntPts */";
};
width = 2005;
}
);
note = triangleup;
unicode = 112;
}
{
glyphname = triangledwn;
layers = (
{
layerId = m01;
shapes = (
{
closed = 1;
nodes = (
(1006,0,l),
(1860,1480,l),
(151,1480,l)
);
}
);
userData = {
assembly = "PUSHB[ ]	/* 6 values pushed */
2 131 1 0 1 0
PUSHW[ ]	/* 2 values pushed */
287 2
MDAP[1]	/* MoveDirectAbsPt */
MIRP[01101]	/* MoveIndirectRelPt */
IP[ ]	/* InterpolatePts */
SVTCA[0]	/* SetFreedomAndProjectionVectorToAxis */
MIAP[1]	/* MoveIndirectAbsPt */
MIRP[01101]	/* MoveIndirectRelPt */
IUP[1]	/* InterpolateUntPts */
IUP[0]	/* InterpolateUntPts */";
};
width = 2005;
}
);
note = triangledwn;
unicode = 113;
}
{
glyphname = triangleopenup;
layers = (
{
layerId = m01;
shapes = (
{
closed = 1;
nodes = (
(1857,0,l),
(1003,1480,l),
(148,0,l),
(148,0,l)
);
},
{
closed = 1;
nodes = (
(1003,1282,l),
(1686,98,l),
(319,98,l),
(319,98,l)
);
}
);
userData = {
assembly = "PUSHB[ ]	/* 3 values pushed */
5 1 3
PUSHW[ ]	/* 1 value pushed */
258
NPUSHB[ ]	/* 10 values pushed */
1 237 0 0 1 3 4 5 4 2
PUSHW[ ]	/* 2 values pushed */
288 0
MDAP[1]	/* MoveDirectAbsPt */
MIRP[00110]	/* MoveIndirectRelPt */
SLOOP[ ]	/* SetLoopVariable */
IP[ ]	/* InterpolatePts */
SVTCA[0]	/* SetFreedomAndProjectionVectorToAxis */
MIAP[1]	/* MoveIndirectAbsPt */
MIRP[00110]	/* MoveIndirectRelPt */
MIRP[11101]	/* MoveIndirectRelPt */
SRP1[ ]	/* SetRefPoint1 */
IP[ ]	/* InterpolatePts */
IUP[1]	/* InterpolateUntPts */
IUP[0]	/* InterpolateUntPts */";
};
width = 2005;
}
);
note = triangleopenup;
unicode = 114;
}
{
glyphname = triangleopendwn;
layers = (
{
layerId = m01;
shapes = (
{
closed = 1;
nodes = (
(1860,1480,l),
(151,1480,l),
(1006,0,l)
);
},
{
closed = 1;
nodes = (
(322,1382,l),
(1689,1382,l),
(1006,198,l)
);
}
);
userData = {
assembly = "PUSHB[ ]	/* 3 values pushed */
5 1 4
PUSHW[ ]	/* 1 value pushed */
258
NPUSHB[ ]	/* 10 values pushed */
2 237 1 0 1 3 4 5 4 0
PUSHW[ ]	/* 2 values pushed */
288 2
MDAP[1]	/* MoveDirectAbsPt */
MIRP[00110]	/* MoveIndirectRelPt */
SLOOP[ ]	/* SetLoopVariable */
IP[ ]	/* InterpolatePts */
SVTCA[0]	/* SetFreedomAndProjectionVectorToAxis */
MIAP[1]	/* MoveIndirectAbsPt */
MIRP[10110]	/* MoveIndirectRelPt */
MIRP[01101]	/* MoveIndirectRelPt */
SRP1[ ]	/* SetRefPoint1 */
IP[ ]	/* InterpolatePts */
IUP[1]	/* InterpolateUntPts */
IUP[0]	/* InterpolateUntPts */";
};
width = 2005;
}
);
note = triangleopendwn;
unicode = 115;
}
{
glyphname = triangleleft;
layers = (
{
layerId = m01;
shapes = (
{
closed = 1;
nodes = (
(1629,1595,l),
(149,740,l),
(1629,-114,l),
(1629,-114,l)
);
}
);
userData = {
assembly = "PUSHB[ ]	/* 2 values pushed */
1 2
PUSHW[ ]	/* 1 value pushed */
289
PUSHB[ ]	/* 4 values pushed */
0 0 91 1
MDAP[1]	/* MoveDirectAbsPt */
MIRP[11101]	/* MoveIndirectRelPt */
SVTCA[0]	/* SetFreedomAndProjectionVectorToAxis */
MDAP[1]	/* MoveDirectAbsPt */
MIRP[01101]	/* MoveIndirectRelPt */
IP[ ]	/* InterpolatePts */
IUP[1]	/* InterpolateUntPts */
IUP[0]	/* InterpolateUntPts */";
};
width = 1801;
}
);
note = triangleleft;
unicode = 116;
}
{
glyphname = trianglert;
layers = (
{
layerId = m01;
shapes = (
{
closed = 1;
nodes = (
(171,-114,l),
(1651,740,l),
(171,1595,l),
(171,1595,l)
);
}
);
userData = {
assembly = "PUSHB[ ]	/* 2 values pushed */
2 1
PUSHW[ ]	/* 1 value pushed */
289
PUSHB[ ]	/* 4 values pushed */
0 2 91 0
MDAP[1]	/* MoveDirectAbsPt */
MIRP[01101]	/* MoveIndirectRelPt */
SVTCA[0]	/* SetFreedomAndProjectionVectorToAxis */
MDAP[1]	/* MoveDirectAbsPt */
MIRP[01101]	/* MoveIndirectRelPt */
IP[ ]	/* InterpolatePts */
IUP[1]	/* InterpolateUntPts */
IUP[0]	/* InterpolateUntPts */";
};
width = 1801;
}
);
note = trianglert;
unicode = 117;
}
{
glyphname = triangleopenleft;
layers = (
{
layerId = m01;
shapes = (
{
closed = 1;
nodes = (
(1628,-114,l),
(1628,1595,l),
(148,740,l)
);
},
{
closed = 1;
nodes = (
(1530,1424,l),
(1530,57,l),
(346,740,l)
);
}
);
userData = {
assembly = "PUSHB[ ]	/* 6 values pushed */
1 3 4 5 4 2
PUSHW[ ]	/* 1 value pushed */
291
PUSHB[ ]	/* 6 values pushed */
0 5 1 3 135 0
PUSHW[ ]	/* 2 values pushed */
290 1
MDAP[1]	/* MoveDirectAbsPt */
MIRP[10110]	/* MoveIndirectRelPt */
MIRP[01101]	/* MoveIndirectRelPt */
SRP1[ ]	/* SetRefPoint1 */
IP[ ]	/* InterpolatePts */
SVTCA[0]	/* SetFreedomAndProjectionVectorToAxis */
MDAP[1]	/* MoveDirectAbsPt */
MIRP[00110]	/* MoveIndirectRelPt */
SLOOP[ ]	/* SetLoopVariable */
IP[ ]	/* InterpolatePts */
IUP[1]	/* InterpolateUntPts */
IUP[0]	/* InterpolateUntPts */";
};
width = 1801;
}
);
note = triangleopenleft;
unicode = 118;
}
{
glyphname = triangleopenrt;
layers = (
{
layerId = m01;
shapes = (
{
closed = 1;
nodes = (
(173,1595,l),
(173,-114,l),
(1653,741,l),
(1653,741,l)
);
},
{
closed = 1;
nodes = (
(271,57,l),
(271,1424,l),
(1455,741,l),
(1455,741,l)
);
}
);
userData = {
assembly = "PUSHB[ ]	/* 6 values pushed */
2 3 4 5 4 1
PUSHW[ ]	/* 1 value pushed */
291
PUSHB[ ]	/* 6 values pushed */
0 4 2 3 135 2
PUSHW[ ]	/* 2 values pushed */
290 0
MDAP[1]	/* MoveDirectAbsPt */
MIRP[00110]	/* MoveIndirectRelPt */
MIRP[11101]	/* MoveIndirectRelPt */
SRP1[ ]	/* SetRefPoint1 */
IP[ ]	/* InterpolatePts */
SVTCA[0]	/* SetFreedomAndProjectionVectorToAxis */
MDAP[1]	/* MoveDirectAbsPt */
MIRP[00110]	/* MoveIndirectRelPt */
SLOOP[ ]	/* SetLoopVariable */
IP[ ]	/* InterpolatePts */
IUP[1]	/* InterpolateUntPts */
IUP[0]	/* InterpolateUntPts */";
};
width = 1801;
}
);
note = triangleopenrt;
unicode = 119;
}
{
glyphname = triang45baseleft;
layers = (
{
layerId = m01;
shapes = (
{
closed = 1;
nodes = (
(172,1415,l),
(172,0,l),
(1587,0,l),
(1587,0,l)
);
}
);
userData = {
assembly = "PUSHB[ ]	/* 7 values pushed */
1 131 0 0 2 91 0
MDAP[1]	/* MoveDirectAbsPt */
MIRP[01101]	/* MoveIndirectRelPt */
SVTCA[0]	/* SetFreedomAndProjectionVectorToAxis */
MIAP[1]	/* MoveIndirectAbsPt */
MIRP[01101]	/* MoveIndirectRelPt */
IUP[1]	/* InterpolateUntPts */
IUP[0]	/* InterpolateUntPts */";
};
width = 1801;
}
);
note = triang45baseleft;
unicode = 120;
}
{
glyphname = triangle45basert;
layers = (
{
layerId = m01;
shapes = (
{
closed = 1;
nodes = (
(1629,0,l),
(1629,1415,l),
(214,0,l),
(214,0,l)
);
}
);
userData = {
assembly = "PUSHB[ ]	/* 7 values pushed */
1 236 0 0 2 91 0
MDAP[1]	/* MoveDirectAbsPt */
MIRP[01101]	/* MoveIndirectRelPt */
SVTCA[0]	/* SetFreedomAndProjectionVectorToAxis */
MIAP[1]	/* MoveIndirectAbsPt */
MIRP[00100]	/* MoveIndirectRelPt */
IUP[1]	/* InterpolateUntPts */
IUP[0]	/* InterpolateUntPts */";
};
width = 1801;
}
);
note = triangle45basert;
unicode = 121;
}
{
glyphname = triangle45toppleft;
layers = (
{
layerId = m01;
shapes = (
{
closed = 1;
nodes = (
(172,1415,l),
(172,0,l),
(1587,1415,l),
(1587,1415,l)
);
}
);
userData = {
assembly = "PUSHB[ ]	/* 5 values pushed */
1 131 0 0 2
PUSHW[ ]	/* 2 values pushed */
292 0
MDAP[1]	/* MoveDirectAbsPt */
MIRP[00100]	/* MoveIndirectRelPt */
SVTCA[0]	/* SetFreedomAndProjectionVectorToAxis */
MIAP[1]	/* MoveIndirectAbsPt */
MIRP[01101]	/* MoveIndirectRelPt */
IUP[1]	/* InterpolateUntPts */
IUP[0]	/* InterpolateUntPts */";
};
width = 1801;
}
);
note = triangle45toppleft;
unicode = 122;
}
{
glyphname = triangle45toprt;
layers = (
{
layerId = m01;
shapes = (
{
closed = 1;
nodes = (
(1629,65,l),
(1629,1480,l),
(214,1480,l)
);
}
);
userData = {
assembly = "PUSHB[ ]	/* 7 values pushed */
1 236 0 0 0 91 1
MDAP[1]	/* MoveDirectAbsPt */
MIRP[11101]	/* MoveIndirectRelPt */
SVTCA[0]	/* SetFreedomAndProjectionVectorToAxis */
MIAP[1]	/* MoveIndirectAbsPt */
MIRP[00100]	/* MoveIndirectRelPt */
IUP[1]	/* InterpolateUntPts */
IUP[0]	/* InterpolateUntPts */";
};
width = 1801;
}
);
note = triangle45toprt;
unicode = 123;
}
{
glyphname = triangle45left;
layers = (
{
layerId = m01;
shapes = (
{
closed = 1;
nodes = (
(919,1479,l),
(173,739,l),
(919,0,l),
(919,0,l)
);
}
);
userData = {
assembly = "PUSHB[ ]	/* 8 values pushed */
0 1 131 2 0 2 170 0
MDAP[1]	/* MoveDirectAbsPt */
MIRP[10100]	/* MoveIndirectRelPt */
SVTCA[0]	/* SetFreedomAndProjectionVectorToAxis */
MIAP[1]	/* MoveIndirectAbsPt */
MIRP[01101]	/* MoveIndirectRelPt */
IP[ ]	/* InterpolatePts */
IUP[1]	/* InterpolateUntPts */
IUP[0]	/* InterpolateUntPts */";
};
width = 1085;
}
);
note = triangle45left;
unicode = 124;
}
{
glyphname = triangle45right;
layers = (
{
layerId = m01;
shapes = (
{
closed = 1;
nodes = (
(919,739,l),
(173,1479,l),
(173,0,l),
(173,0,l)
);
}
);
userData = {
assembly = "PUSHB[ ]	/* 8 values pushed */
0 2 131 1 0 0 170 1
MDAP[1]	/* MoveDirectAbsPt */
MIRP[00100]	/* MoveIndirectRelPt */
SVTCA[0]	/* SetFreedomAndProjectionVectorToAxis */
MIAP[1]	/* MoveIndirectAbsPt */
MIRP[01101]	/* MoveIndirectRelPt */
IP[ ]	/* InterpolatePts */
IUP[1]	/* InterpolateUntPts */
IUP[0]	/* InterpolateUntPts */";
};
width = 1085;
}
);
note = triangle45right;
unicode = 125;
}
{
glyphname = triangle45up;
layers = (
{
layerId = m01;
shapes = (
{
closed = 1;
nodes = (
(1652,734,l),
(913,1480,l),
(173,734,l)
);
}
);
userData = {
assembly = "PUSHB[ ]	/* 7 values pushed */
0 171 2 0 1 91 2
MDAP[1]	/* MoveDirectAbsPt */
MIRP[01101]	/* MoveIndirectRelPt */
IP[ ]	/* InterpolatePts */
SVTCA[0]	/* SetFreedomAndProjectionVectorToAxis */
MDAP[1]	/* MoveDirectAbsPt */
MIRP[01101]	/* MoveIndirectRelPt */
IUP[1]	/* InterpolateUntPts */
IUP[0]	/* InterpolateUntPts */";
};
width = 1825;
}
);
note = triangle45up;
unicode = 126;
}
{
glyphname = triangle45down;
layers = (
{
layerId = m01;
shapes = (
{
closed = 1;
nodes = (
(1638,725,l),
(188,725,l),
(913,0,l)
);
}
);
userData = {
assembly = "PUSHB[ ]	/* 8 values pushed */
1 171 0 0 0 2 91 1
MDAP[1]	/* MoveDirectAbsPt */
MIRP[01101]	/* MoveIndirectRelPt */
IP[ ]	/* InterpolatePts */
SVTCA[0]	/* SetFreedomAndProjectionVectorToAxis */
MIAP[1]	/* MoveIndirectAbsPt */
MIRP[01101]	/* MoveIndirectRelPt */
IUP[1]	/* InterpolateUntPts */
IUP[0]	/* InterpolateUntPts */";
};
width = 1825;
}
);
note = triangle45down;
unicode = 128;
}
{
glyphname = trianglecentup;
layers = (
{
layerId = m01;
shapes = (
{
closed = 1;
nodes = (
(1538,0,l),
(913,1083,l),
(288,0,l)
);
}
);
width = 1825;
}
);
unicode = 129;
}
{
glyphname = trianglecentdwn;
layers = (
{
layerId = m01;
shapes = (
{
closed = 1;
nodes = (
(1538,1083,l),
(288,1083,l),
(913,0,l)
);
}
);
userData = {
assembly = "PUSHB[ ]	/* 6 values pushed */
0 126 2 0 2 1
PUSHW[ ]	/* 2 values pushed */
293 0
MDAP[1]	/* MoveDirectAbsPt */
MIRP[01101]	/* MoveIndirectRelPt */
IP[ ]	/* InterpolatePts */
SVTCA[0]	/* SetFreedomAndProjectionVectorToAxis */
MIAP[1]	/* MoveIndirectAbsPt */
MIRP[01101]	/* MoveIndirectRelPt */
IUP[1]	/* InterpolateUntPts */
IUP[0]	/* InterpolateUntPts */";
};
width = 1825;
}
);
note = trianglecentdwn;
unicode = 130;
}
{
glyphname = trianglecentleft;
layers = (
{
layerId = m01;
shapes = (
{
closed = 1;
nodes = (
(272,740,l),
(1355,115,l),
(1355,1365,l)
);
}
);
userData = {
assembly = "PUSHB[ ]	/* 2 values pushed */
1 2
PUSHW[ ]	/* 1 value pushed */
294
PUSHB[ ]	/* 4 values pushed */
0 0 221 1
MDAP[1]	/* MoveDirectAbsPt */
MIRP[11101]	/* MoveIndirectRelPt */
SVTCA[0]	/* SetFreedomAndProjectionVectorToAxis */
MDAP[1]	/* MoveDirectAbsPt */
MIRP[01101]	/* MoveIndirectRelPt */
IP[ ]	/* InterpolatePts */
IUP[1]	/* InterpolateUntPts */
IUP[0]	/* InterpolateUntPts */";
};
width = 1825;
}
);
note = trianglecentleft;
unicode = 131;
}
{
glyphname = trianglecentrt;
layers = (
{
layerId = m01;
shapes = (
{
closed = 1;
nodes = (
(470,115,l),
(1553,740,l),
(470,1365,l)
);
}
);
userData = {
assembly = "PUSHB[ ]	/* 2 values pushed */
2 1
PUSHW[ ]	/* 1 value pushed */
294
PUSHB[ ]	/* 4 values pushed */
0 2 221 0
MDAP[1]	/* MoveDirectAbsPt */
MIRP[01101]	/* MoveIndirectRelPt */
SVTCA[0]	/* SetFreedomAndProjectionVectorToAxis */
MDAP[1]	/* MoveDirectAbsPt */
MIRP[01101]	/* MoveIndirectRelPt */
IP[ ]	/* InterpolatePts */
IUP[1]	/* InterpolateUntPts */
IUP[0]	/* InterpolateUntPts */";
};
width = 1825;
}
);
note = trianglecentrt;
unicode = 132;
}
{
glyphname = headleft;
layers = (
{
layerId = m01;
shapes = (
{
closed = 1;
nodes = (
(993,740,l),
(1405,1451,l),
(173,740,l),
(1405,29,l),
(1405,29,l)
);
}
);
userData = {
assembly = "NPUSHB[ ]	/* 9 values pushed */
3 1 2 237 0 0 3 2 0
PUSHW[ ]	/* 2 values pushed */
295 1
MDAP[1]	/* MoveDirectAbsPt */
MIRP[00110]	/* MoveIndirectRelPt */
IP[ ]	/* InterpolatePts */
IP[ ]	/* InterpolatePts */
SVTCA[0]	/* SetFreedomAndProjectionVectorToAxis */
MIAP[1]	/* MoveIndirectAbsPt */
MIRP[00110]	/* MoveIndirectRelPt */
IP[ ]	/* InterpolatePts */
IP[ ]	/* InterpolatePts */
IUP[1]	/* InterpolateUntPts */
IUP[0]	/* InterpolateUntPts */";
};
width = 1627;
}
);
note = headleft;
unicode = 133;
}
{
glyphname = headright;
layers = (
{
layerId = m01;
shapes = (
{
closed = 1;
nodes = (
(1455,740,l),
(223,1451,l),
(635,740,l),
(223,29,l)
);
}
);
width = 1627;
}
);
note = headright;
unicode = 134;
}
{
glyphname = headup;
layers = (
{
layerId = m01;
shapes = (
{
closed = 1;
nodes = (
(913,660,l),
(1624,248,l),
(913,1480,l),
(202,248,l),
(202,248,l)
);
}
);
width = 1825;
}
);
note = headup;
unicode = 135;
}
{
glyphname = headdown;
layers = (
{
layerId = m01;
shapes = (
{
closed = 1;
nodes = (
(1624,1232,l),
(913,820,l),
(202,1232,l),
(913,0,l)
);
}
);
width = 1825;
}
);
note = headdown;
unicode = 136;
}
{
glyphname = c1left;
layers = (
{
layerId = m01;
shapes = (
{
closed = 1;
nodes = (
(517,692,l),
(1654,692,l),
(1654,792,l),
(517,792,l),
(517,937,l),
(174,742,l),
(517,547,l),
(517,547,l)
);
}
);
userData = {
assembly = "PUSHB[ ]	/* 5 values pushed */
0 6 1 142 2
PUSHW[ ]	/* 1 value pushed */
258
NPUSHB[ ]	/* 10 values pushed */
5 142 6 2 6 6 2 4 91 0
MDAP[1]	/* MoveDirectAbsPt */
MIRP[01101]	/* MoveIndirectRelPt */
IP[ ]	/* InterpolatePts */
IP[ ]	/* InterpolatePts */
MDAP[1]	/* MoveDirectAbsPt */
MDAP[1]	/* MoveDirectAbsPt */
SVTCA[0]	/* SetFreedomAndProjectionVectorToAxis */
MDAP[1]	/* MoveDirectAbsPt */
MIRP[10100]	/* MoveIndirectRelPt */
MIRP[11101]	/* MoveIndirectRelPt */
MIRP[00100]	/* MoveIndirectRelPt */
SRP1[ ]	/* SetRefPoint1 */
IP[ ]	/* InterpolatePts */
IUP[1]	/* InterpolateUntPts */
IUP[0]	/* InterpolateUntPts */";
};
width = 1825;
}
);
note = c1left;
unicode = 137;
}
{
glyphname = c2left;
layers = (
{
layerId = m01;
shapes = (
{
closed = 1;
nodes = (
(687,664,l),
(1649,664,l),
(1649,820,l),
(687,820,l),
(687,1036,l),
(174,742,l),
(687,448,l)
);
}
);
userData = {
assembly = "PUSHB[ ]	/* 3 values pushed */
0 6 1
PUSHW[ ]	/* 1 value pushed */
296
PUSHB[ ]	/* 3 values pushed */
2 254 5
PUSHW[ ]	/* 1 value pushed */
296
PUSHB[ ]	/* 8 values pushed */
6 2 6 6 2 4 91 0
MDAP[1]	/* MoveDirectAbsPt */
MIRP[01101]	/* MoveIndirectRelPt */
IP[ ]	/* InterpolatePts */
IP[ ]	/* InterpolatePts */
MDAP[1]	/* MoveDirectAbsPt */
MDAP[1]	/* MoveDirectAbsPt */
SVTCA[0]	/* SetFreedomAndProjectionVectorToAxis */
MDAP[1]	/* MoveDirectAbsPt */
MIRP[10100]	/* MoveIndirectRelPt */
MIRP[11101]	/* MoveIndirectRelPt */
MIRP[00100]	/* MoveIndirectRelPt */
SRP1[ ]	/* SetRefPoint1 */
IP[ ]	/* InterpolatePts */
IUP[1]	/* InterpolateUntPts */
IUP[0]	/* InterpolateUntPts */";
};
width = 1825;
}
);
note = c2left;
unicode = 141;
}
{
glyphname = c3left;
layers = (
{
layerId = m01;
shapes = (
{
closed = 1;
nodes = (
(850,637,l),
(1653,637,l),
(1653,843,l),
(850,843,l),
(850,1174,l),
(173,740,l),
(850,306,l)
);
}
);
userData = {
assembly = "PUSHB[ ]	/* 5 values pushed */
0 6 1 124 2
PUSHW[ ]	/* 1 value pushed */
280
NPUSHB[ ]	/* 10 values pushed */
5 124 6 2 6 6 2 4 91 0
MDAP[1]	/* MoveDirectAbsPt */
MIRP[01101]	/* MoveIndirectRelPt */
IP[ ]	/* InterpolatePts */
IP[ ]	/* InterpolatePts */
MDAP[1]	/* MoveDirectAbsPt */
MDAP[1]	/* MoveDirectAbsPt */
SVTCA[0]	/* SetFreedomAndProjectionVectorToAxis */
MDAP[1]	/* MoveDirectAbsPt */
MIRP[10100]	/* MoveIndirectRelPt */
MIRP[11101]	/* MoveIndirectRelPt */
MIRP[00100]	/* MoveIndirectRelPt */
SRP1[ ]	/* SetRefPoint1 */
IP[ ]	/* InterpolatePts */
IUP[1]	/* InterpolateUntPts */
IUP[0]	/* InterpolateUntPts */";
};
width = 1825;
}
);
note = c3left;
unicode = 145;
}
{
glyphname = c4left;
layers = (
{
layerId = m01;
shapes = (
{
closed = 1;
nodes = (
(1190,602,l),
(1653,602,l),
(1653,878,l),
(1190,878,l),
(1190,1323,l),
(173,740,l),
(1190,157,l)
);
}
);
userData = {
assembly = "PUSHB[ ]	/* 3 values pushed */
0 6 1
PUSHW[ ]	/* 5 values pushed */
297 2 298 5 297
PUSHB[ ]	/* 8 values pushed */
6 2 6 6 2 4 91 0
MDAP[1]	/* MoveDirectAbsPt */
MIRP[01101]	/* MoveIndirectRelPt */
IP[ ]	/* InterpolatePts */
IP[ ]	/* InterpolatePts */
MDAP[1]	/* MoveDirectAbsPt */
MDAP[1]	/* MoveDirectAbsPt */
SVTCA[0]	/* SetFreedomAndProjectionVectorToAxis */
MDAP[1]	/* MoveDirectAbsPt */
MIRP[10100]	/* MoveIndirectRelPt */
MIRP[11101]	/* MoveIndirectRelPt */
MIRP[00100]	/* MoveIndirectRelPt */
SRP1[ ]	/* SetRefPoint1 */
IP[ ]	/* InterpolatePts */
IUP[1]	/* InterpolateUntPts */
IUP[0]	/* InterpolateUntPts */";
};
width = 1825;
}
);
note = c4left;
unicode = 149;
}
{
glyphname = a1left;
layers = (
{
layerId = m01;
shapes = (
{
closed = 1;
nodes = (
(419,691,l),
(1649,688,l),
(1649,796,l),
(419,799,l),
(419,983,l),
(174,742,l),
(419,507,l)
);
}
);
userData = {
assembly = "NPUSHB[ ]	/* 22 values pushed */
2 5 6 2 15 2 15 5 31 2 31 5 47 2 47 5 6 0 6 1 145 2
PUSHW[ ]	/* 1 value pushed */
258
NPUSHB[ ]	/* 10 values pushed */
5 145 6 2 6 6 2 4 91 0
MDAP[1]	/* MoveDirectAbsPt */
MIRP[01101]	/* MoveIndirectRelPt */
IP[ ]	/* InterpolatePts */
IP[ ]	/* InterpolatePts */
MDAP[1]	/* MoveDirectAbsPt */
MDAP[1]	/* MoveDirectAbsPt */
SVTCA[0]	/* SetFreedomAndProjectionVectorToAxis */
MDAP[1]	/* MoveDirectAbsPt */
MIRP[10100]	/* MoveIndirectRelPt */
MIRP[11101]	/* MoveIndirectRelPt */
MIRP[00100]	/* MoveIndirectRelPt */
SRP1[ ]	/* SetRefPoint1 */
IP[ ]	/* InterpolatePts */
IUP[1]	/* InterpolateUntPts */
IUP[0]	/* InterpolateUntPts */
SVTCA[1]	/* SetFreedomAndProjectionVectorToAxis */
DELTAP1[ ]	/* DeltaExceptionP1 */
SVTCA[1]	/* SetFreedomAndProjectionVectorToAxis */
SLOOP[ ]	/* SetLoopVariable */
SHPIX[ ]	/* ShiftZoneByPixel */";
};
width = 1825;
}
);
note = a1left;
unicode = 153;
}
{
glyphname = a3left;
layers = (
{
layerId = m01;
shapes = (
{
closed = 1;
nodes = (
(640,637,l),
(1653,637,l),
(1653,843,l),
(640,843,l),
(640,1174,l),
(173,740,l),
(640,306,l)
);
}
);
userData = {
assembly = "PUSHB[ ]	/* 5 values pushed */
0 6 1 202 2
PUSHW[ ]	/* 1 value pushed */
280
NPUSHB[ ]	/* 10 values pushed */
5 202 6 2 6 6 2 4 91 0
MDAP[1]	/* MoveDirectAbsPt */
MIRP[01101]	/* MoveIndirectRelPt */
IP[ ]	/* InterpolatePts */
IP[ ]	/* InterpolatePts */
MDAP[1]	/* MoveDirectAbsPt */
MDAP[1]	/* MoveDirectAbsPt */
SVTCA[0]	/* SetFreedomAndProjectionVectorToAxis */
MDAP[1]	/* MoveDirectAbsPt */
MIRP[10100]	/* MoveIndirectRelPt */
MIRP[11101]	/* MoveIndirectRelPt */
MIRP[00100]	/* MoveIndirectRelPt */
SRP1[ ]	/* SetRefPoint1 */
IP[ ]	/* InterpolatePts */
IUP[1]	/* InterpolateUntPts */
IUP[0]	/* InterpolateUntPts */";
};
width = 1825;
}
);
note = a3left;
unicode = 157;
}
{
glyphname = a4left;
layers = (
{
layerId = m01;
shapes = (
{
closed = 1;
nodes = (
(907,608,l),
(1639,608,l),
(1639,876,l),
(907,876,l),
(907,1484,l),
(174,742,l),
(907,0,l)
);
}
);
userData = {
assembly = "PUSHB[ ]	/* 5 values pushed */
0 6 1 165 2
PUSHW[ ]	/* 1 value pushed */
298
NPUSHB[ ]	/* 11 values pushed */
5 165 6 0 2 6 6 2 4 91 0
MDAP[1]	/* MoveDirectAbsPt */
MIRP[01101]	/* MoveIndirectRelPt */
IP[ ]	/* InterpolatePts */
IP[ ]	/* InterpolatePts */
MDAP[1]	/* MoveDirectAbsPt */
MDAP[1]	/* MoveDirectAbsPt */
SVTCA[0]	/* SetFreedomAndProjectionVectorToAxis */
MIAP[1]	/* MoveIndirectAbsPt */
MIRP[10100]	/* MoveIndirectRelPt */
MIRP[11101]	/* MoveIndirectRelPt */
MIRP[00100]	/* MoveIndirectRelPt */
SRP1[ ]	/* SetRefPoint1 */
IP[ ]	/* InterpolatePts */
IUP[1]	/* InterpolateUntPts */
IUP[0]	/* InterpolateUntPts */";
};
width = 1825;
}
);
note = a4left;
unicode = 161;
}
{
glyphname = d1left;
layers = (
{
layerId = m01;
shapes = (
{
closed = 1;
nodes = (
(564,692,l),
(1653,692,l),
(1653,784,l),
(564,784,l),
(564,1135,l),
(172,738,l),
(564,341,l)
);
}
);
userData = {
assembly = "PUSHB[ ]	/* 5 values pushed */
0 6 1 100 2
PUSHW[ ]	/* 1 value pushed */
258
NPUSHB[ ]	/* 10 values pushed */
5 100 6 2 6 6 2 4 91 0
MDAP[1]	/* MoveDirectAbsPt */
MIRP[01101]	/* MoveIndirectRelPt */
IP[ ]	/* InterpolatePts */
IP[ ]	/* InterpolatePts */
MDAP[1]	/* MoveDirectAbsPt */
MDAP[1]	/* MoveDirectAbsPt */
SVTCA[0]	/* SetFreedomAndProjectionVectorToAxis */
MDAP[1]	/* MoveDirectAbsPt */
MIRP[10100]	/* MoveIndirectRelPt */
MIRP[11101]	/* MoveIndirectRelPt */
MIRP[00100]	/* MoveIndirectRelPt */
SRP1[ ]	/* SetRefPoint1 */
IP[ ]	/* InterpolatePts */
IUP[1]	/* InterpolateUntPts */
IUP[0]	/* InterpolateUntPts */";
};
width = 1825;
}
);
note = d1left;
unicode = 165;
}
{
glyphname = e3left;
layers = (
{
layerId = m01;
shapes = (
{
closed = 1;
nodes = (
(564,644,l),
(1653,644,l),
(1653,832,l),
(564,832,l),
(564,1135,l),
(172,738,l),
(564,341,l)
);
}
);
userData = {
assembly = "PUSHB[ ]	/* 5 values pushed */
0 6 1 124 2
PUSHW[ ]	/* 1 value pushed */
280
NPUSHB[ ]	/* 10 values pushed */
5 124 6 2 6 6 2 4 91 0
MDAP[1]	/* MoveDirectAbsPt */
MIRP[01101]	/* MoveIndirectRelPt */
IP[ ]	/* InterpolatePts */
IP[ ]	/* InterpolatePts */
MDAP[1]	/* MoveDirectAbsPt */
MDAP[1]	/* MoveDirectAbsPt */
SVTCA[0]	/* SetFreedomAndProjectionVectorToAxis */
MDAP[1]	/* MoveDirectAbsPt */
MIRP[10100]	/* MoveIndirectRelPt */
MIRP[11101]	/* MoveIndirectRelPt */
MIRP[00100]	/* MoveIndirectRelPt */
SRP1[ ]	/* SetRefPoint1 */
IP[ ]	/* InterpolatePts */
IUP[1]	/* InterpolateUntPts */
IUP[0]	/* InterpolateUntPts */";
};
width = 1825;
}
);
note = e3left;
unicode = 167;
}
{
glyphname = f4left;
layers = (
{
layerId = m01;
shapes = (
{
closed = 1;
nodes = (
(604,591,l),
(1593,591,l),
(1593,885,l),
(604,885,l),
(604,1089,l),
(172,738,l),
(604,387,l)
);
}
);
userData = {
assembly = "PUSHB[ ]	/* 5 values pushed */
0 6 1 114 2
PUSHW[ ]	/* 1 value pushed */
298
NPUSHB[ ]	/* 10 values pushed */
5 114 6 2 6 6 2 4 91 0
PUSHW[ ]	/* 1 value pushed */
-6
PUSHB[ ]	/* 2 values pushed */
0 2
SCANTYPE[ ]	/* ScanType */
MDAP[1]	/* MoveDirectAbsPt */
SHPIX[ ]	/* ShiftZoneByPixel */
MIRP[01101]	/* MoveIndirectRelPt */
IP[ ]	/* InterpolatePts */
IP[ ]	/* InterpolatePts */
MDAP[1]	/* MoveDirectAbsPt */
MDAP[1]	/* MoveDirectAbsPt */
SVTCA[0]	/* SetFreedomAndProjectionVectorToAxis */
MDAP[1]	/* MoveDirectAbsPt */
MIRP[10100]	/* MoveIndirectRelPt */
MIRP[11101]	/* MoveIndirectRelPt */
MIRP[00100]	/* MoveIndirectRelPt */
SRP1[ ]	/* SetRefPoint1 */
IP[ ]	/* InterpolatePts */
IUP[1]	/* InterpolateUntPts */
IUP[0]	/* InterpolateUntPts */";
};
width = 1825;
}
);
note = f4left;
unicode = 169;
}
{
glyphname = g5left;
layers = (
{
layerId = m01;
shapes = (
{
closed = 1;
nodes = (
(577,553,l),
(1639,553,l),
(1639,931,l),
(577,931,l),
(577,1130,l),
(174,742,l),
(577,354,l),
(577,354,l)
);
}
);
userData = {
assembly = "PUSHB[ ]	/* 5 values pushed */
0 6 1 145 2
PUSHW[ ]	/* 1 value pushed */
299
NPUSHB[ ]	/* 10 values pushed */
5 145 6 2 6 6 2 4 91 0
PUSHW[ ]	/* 2 values pushed */
-6 0
MDAP[1]	/* MoveDirectAbsPt */
SHPIX[ ]	/* ShiftZoneByPixel */
MIRP[01101]	/* MoveIndirectRelPt */
IP[ ]	/* InterpolatePts */
IP[ ]	/* InterpolatePts */
MDAP[1]	/* MoveDirectAbsPt */
MDAP[1]	/* MoveDirectAbsPt */
SVTCA[0]	/* SetFreedomAndProjectionVectorToAxis */
MDAP[1]	/* MoveDirectAbsPt */
MIRP[10100]	/* MoveIndirectRelPt */
MIRP[11101]	/* MoveIndirectRelPt */
MIRP[00100]	/* MoveIndirectRelPt */
SRP1[ ]	/* SetRefPoint1 */
IP[ ]	/* InterpolatePts */
IUP[1]	/* InterpolateUntPts */
IUP[0]	/* InterpolateUntPts */";
};
width = 1825;
}
);
note = g5left;
unicode = 171;
}
{
glyphname = g51;
layers = (
{
layerId = m01;
shapes = (
{
closed = 1;
nodes = (
(684,548,l),
(684,932,l),
(106,932,l),
(106,548,l),
(106,548,l)
);
}
);
userData = {
assembly = "PUSHW[ ]	/* 6 values pushed */
0 299 3 2 300 3
MDAP[1]	/* MoveDirectAbsPt */
MIRP[01101]	/* MoveIndirectRelPt */
SVTCA[0]	/* SetFreedomAndProjectionVectorToAxis */
MDAP[1]	/* MoveDirectAbsPt */
MIRP[01101]	/* MoveIndirectRelPt */
IUP[1]	/* InterpolateUntPts */
IUP[0]	/* InterpolateUntPts */";
};
width = 789;
}
);
note = g51;
unicode = 172;
}
{
glyphname = g5dash2;
layers = (
{
layerId = m01;
shapes = (
{
closed = 1;
nodes = (
(492,544,l),
(492,936,l),
(100,936,l),
(100,544,l),
(100,544,l)
);
}
);
userData = {
assembly = "PUSHW[ ]	/* 6 values pushed */
0 299 3 2 301 3
MDAP[1]	/* MoveDirectAbsPt */
MIRP[01101]	/* MoveIndirectRelPt */
SVTCA[0]	/* SetFreedomAndProjectionVectorToAxis */
MDAP[1]	/* MoveDirectAbsPt */
MIRP[01101]	/* MoveIndirectRelPt */
IUP[1]	/* InterpolateUntPts */
IUP[0]	/* InterpolateUntPts */";
};
width = 592;
}
);
note = g5dash2;
unicode = 173;
}
{
glyphname = g5dash3;
layers = (
{
layerId = m01;
shapes = (
{
closed = 1;
nodes = (
(393,546,l),
(393,934,l),
(101,934,l),
(101,546,l),
(101,546,l)
);
}
);
userData = {
assembly = "PUSHW[ ]	/* 6 values pushed */
0 299 3 2 263 3
MDAP[1]	/* MoveDirectAbsPt */
MIRP[01101]	/* MoveIndirectRelPt */
SVTCA[0]	/* SetFreedomAndProjectionVectorToAxis */
MDAP[1]	/* MoveDirectAbsPt */
MIRP[01101]	/* MoveIndirectRelPt */
IUP[1]	/* InterpolateUntPts */
IUP[0]	/* InterpolateUntPts */";
};
width = 493;
}
);
note = g5dash3;
unicode = 174;
}
{
glyphname = g5dash4;
layers = (
{
layerId = m01;
shapes = (
{
closed = 1;
nodes = (
(294,548,l),
(294,932,l),
(101,932,l),
(101,548,l)
);
}
);
userData = {
assembly = "PUSHW[ ]	/* 6 values pushed */
0 299 3 2 259 3
MDAP[1]	/* MoveDirectAbsPt */
MIRP[01101]	/* MoveIndirectRelPt */
SVTCA[0]	/* SetFreedomAndProjectionVectorToAxis */
MDAP[1]	/* MoveDirectAbsPt */
MIRP[01101]	/* MoveIndirectRelPt */
IUP[1]	/* InterpolateUntPts */
IUP[0]	/* InterpolateUntPts */";
};
width = 394;
}
);
note = g5dash4;
unicode = 175;
}
{
glyphname = h6left;
layers = (
{
layerId = m01;
shapes = (
{
closed = 1;
nodes = (
(732,518,l),
(1652,518,l),
(1652,962,l),
(732,962,l),
(732,1179,l),
(174,740,l),
(732,301,l)
);
}
);
userData = {
assembly = "NPUSHB[ ]	/* 16 values pushed */
0 6 1 142 2 162 5 142 6 2 6 6 2 4 91 0
PUSHW[ ]	/* 2 values pushed */
-6 0
MDAP[1]	/* MoveDirectAbsPt */
SHPIX[ ]	/* ShiftZoneByPixel */
MIRP[01101]	/* MoveIndirectRelPt */
IP[ ]	/* InterpolatePts */
IP[ ]	/* InterpolatePts */
MDAP[1]	/* MoveDirectAbsPt */
MDAP[1]	/* MoveDirectAbsPt */
SVTCA[0]	/* SetFreedomAndProjectionVectorToAxis */
MDAP[1]	/* MoveDirectAbsPt */
MIRP[10100]	/* MoveIndirectRelPt */
MIRP[11101]	/* MoveIndirectRelPt */
MIRP[00100]	/* MoveIndirectRelPt */
SRP1[ ]	/* SetRefPoint1 */
IP[ ]	/* InterpolatePts */
IUP[1]	/* InterpolateUntPts */
IUP[0]	/* InterpolateUntPts */";
};
width = 1825;
}
);
note = h6left;
unicode = 177;
}
{
glyphname = i8left;
layers = (
{
layerId = m01;
shapes = (
{
closed = 1;
nodes = (
(1652,301,l),
(1652,1179,l),
(732,1179,l),
(174,740,l),
(732,301,l)
);
}
);
userData = {
assembly = "PUSHB[ ]	/* 2 values pushed */
0 1
PUSHW[ ]	/* 1 value pushed */
302
PUSHB[ ]	/* 6 values pushed */
4 4 1 3 91 0
MDAP[1]	/* MoveDirectAbsPt */
MIRP[01101]	/* MoveIndirectRelPt */
IP[ ]	/* InterpolatePts */
IP[ ]	/* InterpolatePts */
SVTCA[0]	/* SetFreedomAndProjectionVectorToAxis */
MDAP[1]	/* MoveDirectAbsPt */
MIRP[01101]	/* MoveIndirectRelPt */
IP[ ]	/* InterpolatePts */
IUP[1]	/* InterpolateUntPts */
IUP[0]	/* InterpolateUntPts */";
};
width = 1825;
}
);
note = i8left;
unicode = 179;
}
{
glyphname = j6left;
layers = (
{
layerId = m01;
shapes = (
{
closed = 1;
nodes = (
(667,498,l),
(910,498,l),
(910,986,l),
(667,986,l),
(667,1245,l),
(174,742,l),
(667,239,l),
(667,239,l)
);
}
);
userData = {
assembly = "NPUSHB[ ]	/* 14 values pushed */
0 6 1 114 2 162 5 114 6 2 6 6 2 4
PUSHW[ ]	/* 2 values pushed */
303 0
MDAP[1]	/* MoveDirectAbsPt */
MIRP[01101]	/* MoveIndirectRelPt */
IP[ ]	/* InterpolatePts */
IP[ ]	/* InterpolatePts */
MDAP[1]	/* MoveDirectAbsPt */
MDAP[1]	/* MoveDirectAbsPt */
SVTCA[0]	/* SetFreedomAndProjectionVectorToAxis */
MDAP[1]	/* MoveDirectAbsPt */
MIRP[10100]	/* MoveIndirectRelPt */
MIRP[11101]	/* MoveIndirectRelPt */
MIRP[00100]	/* MoveIndirectRelPt */
SRP1[ ]	/* SetRefPoint1 */
IP[ ]	/* InterpolatePts */
IUP[1]	/* InterpolateUntPts */
IUP[0]	/* InterpolateUntPts */";
};
width = 1085;
}
);
note = j6left;
unicode = 181;
}
{
glyphname = k6left;
layers = (
{
layerId = m01;
shapes = (
{
closed = 1;
nodes = (
(1270,740,l),
(1492,962,l),
(632,962,l),
(632,1179,l),
(74,740,l),
(632,301,l),
(632,518,l),
(1492,518,l)
);
}
);
userData = {
assembly = "NPUSHB[ ]	/* 18 values pushed */
4 0 7 1 142 2 162 6 142 7 2 7 2 3 4 7 4 5
PUSHW[ ]	/* 4 values pushed */
293 0 -6 0
MDAP[1]	/* MoveDirectAbsPt */
SHPIX[ ]	/* ShiftZoneByPixel */
MIRP[01101]	/* MoveIndirectRelPt */
SLOOP[ ]	/* SetLoopVariable */
IP[ ]	/* InterpolatePts */
MDAP[1]	/* MoveDirectAbsPt */
MDAP[1]	/* MoveDirectAbsPt */
SVTCA[0]	/* SetFreedomAndProjectionVectorToAxis */
MDAP[1]	/* MoveDirectAbsPt */
MIRP[10100]	/* MoveIndirectRelPt */
MIRP[11101]	/* MoveIndirectRelPt */
MIRP[00100]	/* MoveIndirectRelPt */
SRP1[ ]	/* SetRefPoint1 */
IP[ ]	/* InterpolatePts */
IP[ ]	/* InterpolatePts */
IUP[1]	/* InterpolateUntPts */
IUP[0]	/* InterpolateUntPts */";
};
width = 1628;
}
);
note = k6left;
unicode = 185;
}
{
glyphname = l7left;
layers = (
{
layerId = m01;
shapes = (
{
closed = 1;
nodes = (
(517,373,l),
(731,373,l),
(731,1134,l),
(517,1134,l),
(517,1509,l),
(111,754,l),
(517,0,l),
(517,0,l)
);
}
);
userData = {
assembly = "NPUSHB[ ]	/* 15 values pushed */
0 6 1 157 2 171 5 157 6 0 2 6 6 2 4
PUSHW[ ]	/* 2 values pushed */
271 0
MDAP[1]	/* MoveDirectAbsPt */
MIRP[01101]	/* MoveIndirectRelPt */
IP[ ]	/* InterpolatePts */
IP[ ]	/* InterpolatePts */
MDAP[1]	/* MoveDirectAbsPt */
MDAP[1]	/* MoveDirectAbsPt */
SVTCA[0]	/* SetFreedomAndProjectionVectorToAxis */
MIAP[1]	/* MoveIndirectAbsPt */
MIRP[10100]	/* MoveIndirectRelPt */
MIRP[11101]	/* MoveIndirectRelPt */
MIRP[00100]	/* MoveIndirectRelPt */
SRP1[ ]	/* SetRefPoint1 */
IP[ ]	/* InterpolatePts */
IUP[1]	/* InterpolateUntPts */
IUP[0]	/* InterpolateUntPts */";
};
width = 900;
}
);
note = l7left;
unicode = 189;
}
{
glyphname = m9left;
layers = (
{
layerId = m01;
shapes = (
{
closed = 1;
nodes = (
(596,275,l),
(830,275,l),
(830,1234,l),
(596,1234,l),
(596,1509,l),
(190,754,l),
(596,0,l),
(596,0,l)
);
}
);
userData = {
assembly = "NPUSHB[ ]	/* 17 values pushed */
0 6 1 114 2 219 5 114 6 0 2 6 6 2 4 209 0
MDAP[1]	/* MoveDirectAbsPt */
MIRP[01101]	/* MoveIndirectRelPt */
IP[ ]	/* InterpolatePts */
IP[ ]	/* InterpolatePts */
MDAP[1]	/* MoveDirectAbsPt */
MDAP[1]	/* MoveDirectAbsPt */
SVTCA[0]	/* SetFreedomAndProjectionVectorToAxis */
MIAP[1]	/* MoveIndirectAbsPt */
MIRP[10100]	/* MoveIndirectRelPt */
MIRP[11101]	/* MoveIndirectRelPt */
MIRP[00100]	/* MoveIndirectRelPt */
SRP1[ ]	/* SetRefPoint1 */
IP[ ]	/* InterpolatePts */
IUP[1]	/* InterpolateUntPts */
IUP[0]	/* InterpolateUntPts */";
};
width = 1019;
}
);
note = m9left;
unicode = 193;
}
{
glyphname = n7left;
layers = (
{
layerId = m01;
shapes = (
{
closed = 1;
nodes = (
(1015,370,l),
(1655,370,l),
(1655,1110,l),
(1015,1110,l),
(1015,1470,l),
(173,740,l),
(1015,5,l),
(1015,5,l)
);
}
);
userData = {
assembly = "NPUSHB[ ]	/* 17 values pushed */
0 6 1 157 2 171 5 157 6 0 2 6 6 2 4 91 0
MDAP[1]	/* MoveDirectAbsPt */
MIRP[01101]	/* MoveIndirectRelPt */
IP[ ]	/* InterpolatePts */
IP[ ]	/* InterpolatePts */
MDAP[1]	/* MoveDirectAbsPt */
MDAP[1]	/* MoveDirectAbsPt */
SVTCA[0]	/* SetFreedomAndProjectionVectorToAxis */
MIAP[1]	/* MoveIndirectAbsPt */
MIRP[10100]	/* MoveIndirectRelPt */
MIRP[11101]	/* MoveIndirectRelPt */
MIRP[00100]	/* MoveIndirectRelPt */
SRP1[ ]	/* SetRefPoint1 */
IP[ ]	/* InterpolatePts */
IUP[1]	/* InterpolateUntPts */
IUP[0]	/* InterpolateUntPts */";
};
width = 1825;
}
);
note = n7left;
unicode = 197;
}
{
glyphname = arrowdwnleft;
layers = (
{
layerId = m01;
shapes = (
{
closed = 1;
nodes = (
(650,543,l),
(1317,543,ls),
(1594,543,o),
(1636,617,o),
(1636,815,cs),
(1636,1185,l),
(1518,1185,l),
(1518,983,o),
(1478,926,o),
(1323,926,cs),
(650,926,l),
(650,1088,l),
(171,735,l),
(650,382,l)
);
}
);
userData = {
assembly = "PUSHB[ ]	/* 4 values pushed */
1 7 0 2
PUSHW[ ]	/* 1 value pushed */
299
NPUSHB[ ]	/* 15 values pushed */
15 15 7 173 16 2 16 16 2 0 6 133 9 91 0
MDAP[1]	/* MoveDirectAbsPt */
MIRP[11101]	/* MoveIndirectRelPt */
MIRP[01101]	/* MoveIndirectRelPt */
SRP1[ ]	/* SetRefPoint1 */
IP[ ]	/* InterpolatePts */
IP[ ]	/* InterpolatePts */
MDAP[1]	/* MoveDirectAbsPt */
MDAP[1]	/* MoveDirectAbsPt */
SVTCA[0]	/* SetFreedomAndProjectionVectorToAxis */
MDAP[1]	/* MoveDirectAbsPt */
MIRP[01101]	/* MoveIndirectRelPt */
IP[ ]	/* InterpolatePts */
MDAP[1]	/* MoveDirectAbsPt */
MIRP[01101]	/* MoveIndirectRelPt */
IP[ ]	/* InterpolatePts */
SRP1[ ]	/* SetRefPoint1 */
IP[ ]	/* InterpolatePts */
IUP[1]	/* InterpolateUntPts */
IUP[0]	/* InterpolateUntPts */";
};
width = 1825;
}
);
note = arrowdwnleft;
unicode = 201;
}
{
glyphname = arrowdwnrt;
layers = (
{
layerId = m01;
shapes = (
{
closed = 1;
nodes = (
(1636,735,l),
(1157,1088,l),
(1157,926,l),
(484,926,ls),
(329,926,o),
(289,983,o),
(289,1185,c),
(171,1185,l),
(171,815,ls),
(171,617,o),
(213,543,o),
(490,543,cs),
(1157,543,l),
(1157,382,l)
);
}
);
userData = {
assembly = "PUSHB[ ]	/* 4 values pushed */
16 9 0 14
PUSHW[ ]	/* 1 value pushed */
299
NPUSHB[ ]	/* 15 values pushed */
3 3 9 173 1 1 15 15 1 0 11 133 0 91 8
MDAP[1]	/* MoveDirectAbsPt */
MIRP[01101]	/* MoveIndirectRelPt */
MIRP[11101]	/* MoveIndirectRelPt */
SRP1[ ]	/* SetRefPoint1 */
IP[ ]	/* InterpolatePts */
IP[ ]	/* InterpolatePts */
MDAP[1]	/* MoveDirectAbsPt */
MDAP[1]	/* MoveDirectAbsPt */
SVTCA[0]	/* SetFreedomAndProjectionVectorToAxis */
MDAP[1]	/* MoveDirectAbsPt */
MIRP[01101]	/* MoveIndirectRelPt */
IP[ ]	/* InterpolatePts */
MDAP[1]	/* MoveDirectAbsPt */
MIRP[01101]	/* MoveIndirectRelPt */
IP[ ]	/* InterpolatePts */
SRP1[ ]	/* SetRefPoint1 */
IP[ ]	/* InterpolatePts */
IUP[1]	/* InterpolateUntPts */
IUP[0]	/* InterpolateUntPts */";
};
width = 1825;
}
);
note = arrowdwnrt;
unicode = 202;
}
{
glyphname = barb1left;
layers = (
{
layerId = m01;
shapes = (
{
closed = 1;
nodes = (
(973,0,l),
(412,671,l),
(1787,671,l),
(1787,807,l),
(412,807,l),
(973,1478,l),
(798,1478,l),
(173,739,l),
(798,0,l)
);
}
);
userData = {
assembly = "NPUSHB[ ]	/* 40 values pushed */
7 6 6 255 0 8 20 0 0 8 2 3 3 255 0 1 20 0 0 1 0 8 1 169 3 254 6 169 8 0 1 2 3 6 7 8 6 5 239 0
MDAP[1]	/* MoveDirectAbsPt */
MIRP[01101]	/* MoveIndirectRelPt */
SLOOP[ ]	/* SetLoopVariable */
IP[ ]	/* InterpolatePts */
SVTCA[0]	/* SetFreedomAndProjectionVectorToAxis */
MIAP[1]	/* MoveIndirectAbsPt */
MIRP[11101]	/* MoveIndirectRelPt */
MIRP[11101]	/* MoveIndirectRelPt */
MIRP[01101]	/* MoveIndirectRelPt */
SRP1[ ]	/* SetRefPoint1 */
IP[ ]	/* InterpolatePts */
IUP[1]	/* InterpolateUntPts */
IUP[0]	/* InterpolateUntPts */
SDPVTL[1]	/* SetDualPVectorToLine */
SFVTCA[1]	/* SetFVectorToAxis */
MDAP[0]	/* MoveDirectAbsPt */
CALL[ ]	/* CallFunction */
RDTG[ ]	/* RoundDownToGrid */
SRP0[ ]	/* SetRefPoint0 */
MDRP[00100]	/* MoveDirectRelPt */
SDPVTL[1]	/* SetDualPVectorToLine */
MDAP[0]	/* MoveDirectAbsPt */
RTG[ ]	/* RoundToGrid */
CALL[ ]	/* CallFunction */
RDTG[ ]	/* RoundDownToGrid */
SRP0[ ]	/* SetRefPoint0 */
MDRP[00100]	/* MoveDirectRelPt */";
};
width = 1961;
}
);
note = barb1left;
unicode = (209,241);
}
{
glyphname = barb1nw;
layers = (
{
layerId = m01;
shapes = (
{
closed = 1;
nodes = (
(216,250,l),
(294,1121,l),
(1269,152,l),
(1363,246,l),
(390,1217,l),
(1264,1298,l),
(1140,1422,l),
(173,1338,l),
(92,374,l),
(92,374,l)
);
}
);
userData = {
assembly = "NPUSHB[ ]	/* 28 values pushed */
4 3 3 255 6 5 20 6 6 5 4 5 6 8 4 7 3 254 0 179 7 1 2 3 5 4 4 7
PUSHW[ ]	/* 1 value pushed */
274
PUSHB[ ]	/* 5 values pushed */
4 178 8 6 8
MDAP[1]	/* MoveDirectAbsPt */
SHPIX[ ]	/* ShiftZoneByPixel */
MIRP[01101]	/* MoveIndirectRelPt */
MIRP[10100]	/* MoveIndirectRelPt */
SRP1[ ]	/* SetRefPoint1 */
SLOOP[ ]	/* SetLoopVariable */
IP[ ]	/* InterpolatePts */
SVTCA[0]	/* SetFreedomAndProjectionVectorToAxis */
MDAP[1]	/* MoveDirectAbsPt */
MIRP[11101]	/* MoveIndirectRelPt */
MIRP[01101]	/* MoveIndirectRelPt */
SRP1[ ]	/* SetRefPoint1 */
SLOOP[ ]	/* SetLoopVariable */
IP[ ]	/* InterpolatePts */
IUP[1]	/* InterpolateUntPts */
IUP[0]	/* InterpolateUntPts */
SDPVTL[1]	/* SetDualPVectorToLine */
SFVTCA[1]	/* SetFVectorToAxis */
MDAP[0]	/* MoveDirectAbsPt */
CALL[ ]	/* CallFunction */
SFVTPV[ ]	/* SetFVectorToPVector */
RDTG[ ]	/* RoundDownToGrid */
SRP0[ ]	/* SetRefPoint0 */
MDRP[00100]	/* MoveDirectRelPt */";
};
width = 1540;
}
);
note = barb1nw;
unicode = (213,245);
}
{
glyphname = barb1sw;
layers = (
{
layerId = m01;
shapes = (
{
closed = 1;
nodes = (
(1264,183,l),
(390,264,l),
(1363,1235,l),
(1269,1329,l),
(294,360,l),
(216,1231,l),
(92,1107,l),
(173,143,l),
(1140,59,l),
(1140,59,l)
);
}
);
userData = {
assembly = "NPUSHB[ ]	/* 28 values pushed */
4 3 3 255 6 5 20 6 6 5 1 2 3 5 4 4 6 254 4 179 0 4 5 6 8 4 7 3
PUSHW[ ]	/* 1 value pushed */
256
PUSHB[ ]	/* 4 values pushed */
7 178 0 0
MDAP[1]	/* MoveDirectAbsPt */
SHP[1]	/* ShiftPointByLastPoint */
MIRP[01101]	/* MoveIndirectRelPt */
MIRP[11101]	/* MoveIndirectRelPt */
SRP1[ ]	/* SetRefPoint1 */
SLOOP[ ]	/* SetLoopVariable */
IP[ ]	/* InterpolatePts */
SVTCA[0]	/* SetFreedomAndProjectionVectorToAxis */
MDAP[1]	/* MoveDirectAbsPt */
MIRP[01101]	/* MoveIndirectRelPt */
MIRP[11101]	/* MoveIndirectRelPt */
SRP1[ ]	/* SetRefPoint1 */
SLOOP[ ]	/* SetLoopVariable */
IP[ ]	/* InterpolatePts */
IUP[1]	/* InterpolateUntPts */
IUP[0]	/* InterpolateUntPts */
SDPVTL[1]	/* SetDualPVectorToLine */
MDAP[0]	/* MoveDirectAbsPt */
CALL[ ]	/* CallFunction */
SFVTPV[ ]	/* SetFVectorToPVector */
RDTG[ ]	/* RoundDownToGrid */
SRP0[ ]	/* SetRefPoint0 */
MDRP[00100]	/* MoveDirectRelPt */";
};
width = 1540;
}
);
note = barb1sw;
unicode = 215;
}
{
glyphname = barb3left;
layers = (
{
layerId = m01;
shapes = (
{
closed = 1;
nodes = (
(1919,905,l),
(757,905,l),
(1291,1521,l),
(848,1520,l),
(170,758,l),
(848,1,l),
(1291,0,l),
(755,614,l),
(1919,616,l)
);
}
);
userData = {
assembly = "PUSHB[ ]	/* 3 values pushed */
7 6 6
PUSHW[ ]	/* 1 value pushed */
305
NPUSHB[ ]	/* 9 values pushed */
0 8 20 0 0 8 2 3 3
PUSHW[ ]	/* 1 value pushed */
305
NPUSHB[ ]	/* 11 values pushed */
0 1 20 0 0 1 0 8 1 166 3
PUSHW[ ]	/* 1 value pushed */
298
NPUSHB[ ]	/* 12 values pushed */
6 166 8 0 1 2 3 6 7 8 6 5
PUSHW[ ]	/* 2 values pushed */
304 0
MDAP[1]	/* MoveDirectAbsPt */
MIRP[01101]	/* MoveIndirectRelPt */
SLOOP[ ]	/* SetLoopVariable */
IP[ ]	/* InterpolatePts */
SVTCA[0]	/* SetFreedomAndProjectionVectorToAxis */
MIAP[1]	/* MoveIndirectAbsPt */
MIRP[11101]	/* MoveIndirectRelPt */
MIRP[11101]	/* MoveIndirectRelPt */
MIRP[01101]	/* MoveIndirectRelPt */
SRP1[ ]	/* SetRefPoint1 */
IP[ ]	/* InterpolatePts */
IUP[1]	/* InterpolateUntPts */
IUP[0]	/* InterpolateUntPts */
SDPVTL[1]	/* SetDualPVectorToLine */
SFVTCA[1]	/* SetFVectorToAxis */
MDAP[0]	/* MoveDirectAbsPt */
CALL[ ]	/* CallFunction */
RDTG[ ]	/* RoundDownToGrid */
SRP0[ ]	/* SetRefPoint0 */
MDRP[00100]	/* MoveDirectRelPt */
SDPVTL[1]	/* SetDualPVectorToLine */
MDAP[0]	/* MoveDirectAbsPt */
RTG[ ]	/* RoundToGrid */
CALL[ ]	/* CallFunction */
RDTG[ ]	/* RoundDownToGrid */
SRP0[ ]	/* SetRefPoint0 */
MDRP[00100]	/* MoveDirectRelPt */";
};
width = 2096;
}
);
note = barb3left;
unicode = (217,249);
}
{
glyphname = barb3nw;
layers = (
{
layerId = m01;
shapes = (
{
closed = 1;
nodes = (
(1512,280,l),
(690,1102,l),
(1503,1159,l),
(1189,1472,l),
(171,1413,l),
(115,398,l),
(428,84,l),
(483,897,l),
(1307,75,l)
);
}
);
userData = {
assembly = "PUSHB[ ]	/* 3 values pushed */
4 3 3
PUSHW[ ]	/* 1 value pushed */
305
NPUSHB[ ]	/* 13 values pushed */
6 5 20 6 6 5 4 5 6 8 4 7 3
PUSHW[ ]	/* 1 value pushed */
298
NPUSHB[ ]	/* 14 values pushed */
0 226 7 1 2 3 5 4 4 7 153 4 225 8
MDAP[1]	/* MoveDirectAbsPt */
MIRP[01101]	/* MoveIndirectRelPt */
MIRP[10100]	/* MoveIndirectRelPt */
SRP1[ ]	/* SetRefPoint1 */
SLOOP[ ]	/* SetLoopVariable */
IP[ ]	/* InterpolatePts */
SVTCA[0]	/* SetFreedomAndProjectionVectorToAxis */
MDAP[1]	/* MoveDirectAbsPt */
MIRP[11101]	/* MoveIndirectRelPt */
MIRP[01101]	/* MoveIndirectRelPt */
SRP1[ ]	/* SetRefPoint1 */
SLOOP[ ]	/* SetLoopVariable */
IP[ ]	/* InterpolatePts */
IUP[1]	/* InterpolateUntPts */
IUP[0]	/* InterpolateUntPts */
SDPVTL[1]	/* SetDualPVectorToLine */
SFVTCA[1]	/* SetFVectorToAxis */
MDAP[0]	/* MoveDirectAbsPt */
CALL[ ]	/* CallFunction */
SFVTPV[ ]	/* SetFVectorToPVector */
RDTG[ ]	/* RoundDownToGrid */
SRP0[ ]	/* SetRefPoint0 */
MDRP[00100]	/* MoveDirectRelPt */";
};
width = 1688;
}
);
note = barb3nw;
unicode = (221,253);
}
{
glyphname = barb3sw;
layers = (
{
layerId = m01;
shapes = (
{
closed = 1;
nodes = (
(1505,323,l),
(692,380,l),
(1514,1202,l),
(1309,1407,l),
(485,585,l),
(430,1398,l),
(117,1084,l),
(173,69,l),
(1191,10,l)
);
}
);
userData = {
assembly = "PUSHB[ ]	/* 3 values pushed */
4 3 3
PUSHW[ ]	/* 1 value pushed */
305
NPUSHB[ ]	/* 13 values pushed */
6 5 20 6 6 5 1 2 3 5 4 4 6
PUSHW[ ]	/* 1 value pushed */
298
NPUSHB[ ]	/* 10 values pushed */
4 226 0 4 5 6 8 4 7 3
PUSHW[ ]	/* 1 value pushed */
263
PUSHB[ ]	/* 3 values pushed */
7 225 0
MDAP[1]	/* MoveDirectAbsPt */
MIRP[01101]	/* MoveIndirectRelPt */
MIRP[11101]	/* MoveIndirectRelPt */
SRP1[ ]	/* SetRefPoint1 */
SLOOP[ ]	/* SetLoopVariable */
IP[ ]	/* InterpolatePts */
SVTCA[0]	/* SetFreedomAndProjectionVectorToAxis */
MDAP[1]	/* MoveDirectAbsPt */
MIRP[01101]	/* MoveIndirectRelPt */
MIRP[11101]	/* MoveIndirectRelPt */
SRP1[ ]	/* SetRefPoint1 */
SLOOP[ ]	/* SetLoopVariable */
IP[ ]	/* InterpolatePts */
IUP[1]	/* InterpolateUntPts */
IUP[0]	/* InterpolateUntPts */
SDPVTL[1]	/* SetDualPVectorToLine */
MDAP[0]	/* MoveDirectAbsPt */
CALL[ ]	/* CallFunction */
SFVTPV[ ]	/* SetFVectorToPVector */
RDTG[ ]	/* RoundDownToGrid */
SRP0[ ]	/* SetRefPoint0 */
MDRP[00100]	/* MoveDirectRelPt */";
};
width = 1688;
}
);
note = barb3sw;
unicode = 223;
}
{
glyphname = barb5left;
layers = (
{
layerId = m01;
shapes = (
{
closed = 1;
nodes = (
(1456,0,l),
(1016,502,l),
(2107,503,l),
(2109,974,l),
(1015,975,l),
(1458,1477,l),
(833,1477,l),
(173,740,l),
(835,0,l)
);
}
);
userData = {
assembly = "PUSHB[ ]	/* 3 values pushed */
7 6 6
PUSHW[ ]	/* 1 value pushed */
306
NPUSHB[ ]	/* 9 values pushed */
0 8 20 0 0 8 2 3 3
PUSHW[ ]	/* 1 value pushed */
306
NPUSHB[ ]	/* 26 values pushed */
0 1 20 0 0 1 0 8 1 162 3 162 6 162 8 0 1 2 3 6 7 8 6 5 243 0
MDAP[1]	/* MoveDirectAbsPt */
MIRP[01101]	/* MoveIndirectRelPt */
SLOOP[ ]	/* SetLoopVariable */
IP[ ]	/* InterpolatePts */
SVTCA[0]	/* SetFreedomAndProjectionVectorToAxis */
MIAP[1]	/* MoveIndirectAbsPt */
MIRP[11101]	/* MoveIndirectRelPt */
MIRP[11101]	/* MoveIndirectRelPt */
MIRP[01101]	/* MoveIndirectRelPt */
SRP1[ ]	/* SetRefPoint1 */
IP[ ]	/* InterpolatePts */
IUP[1]	/* InterpolateUntPts */
IUP[0]	/* InterpolateUntPts */
SDPVTL[1]	/* SetDualPVectorToLine */
SFVTCA[1]	/* SetFVectorToAxis */
MDAP[0]	/* MoveDirectAbsPt */
CALL[ ]	/* CallFunction */
RDTG[ ]	/* RoundDownToGrid */
SRP0[ ]	/* SetRefPoint0 */
MDRP[00100]	/* MoveDirectRelPt */
SDPVTL[1]	/* SetDualPVectorToLine */
MDAP[0]	/* MoveDirectAbsPt */
RTG[ ]	/* RoundToGrid */
CALL[ ]	/* CallFunction */
RDTG[ ]	/* RoundDownToGrid */
SRP0[ ]	/* SetRefPoint0 */
MDRP[00100]	/* MoveDirectRelPt */";
};
width = 2277;
}
);
note = barb5left;
unicode = 225;
}
{
glyphname = barb5nw;
layers = (
{
layerId = m01;
shapes = (
{
closed = 1;
nodes = (
(600,717,l),
(1372,-54,l),
(1707,278,l),
(934,1052,l),
(1605,1097,l),
(1163,1539,l),
(172,1481,l),
(114,487,l),
(553,48,l),
(553,48,l)
);
}
);
userData = {
assembly = "PUSHB[ ]	/* 3 values pushed */
4 3 3
PUSHW[ ]	/* 1 value pushed */
306
NPUSHB[ ]	/* 15 values pushed */
6 5 20 6 6 5 4 5 6 8 4 7 3 162 0
PUSHW[ ]	/* 1 value pushed */
309
PUSHB[ ]	/* 8 values pushed */
7 1 2 3 5 4 4 7
PUSHW[ ]	/* 4 values pushed */
308 4 307 8
MDAP[1]	/* MoveDirectAbsPt */
MIRP[01101]	/* MoveIndirectRelPt */
MIRP[10100]	/* MoveIndirectRelPt */
SRP1[ ]	/* SetRefPoint1 */
SLOOP[ ]	/* SetLoopVariable */
IP[ ]	/* InterpolatePts */
SVTCA[0]	/* SetFreedomAndProjectionVectorToAxis */
MDAP[1]	/* MoveDirectAbsPt */
MIRP[11101]	/* MoveIndirectRelPt */
MIRP[01101]	/* MoveIndirectRelPt */
SRP1[ ]	/* SetRefPoint1 */
SLOOP[ ]	/* SetLoopVariable */
IP[ ]	/* InterpolatePts */
IUP[1]	/* InterpolateUntPts */
IUP[0]	/* InterpolateUntPts */
SDPVTL[1]	/* SetDualPVectorToLine */
SFVTCA[1]	/* SetFVectorToAxis */
MDAP[0]	/* MoveDirectAbsPt */
CALL[ ]	/* CallFunction */
SFVTPV[ ]	/* SetFVectorToPVector */
RDTG[ ]	/* RoundDownToGrid */
SRP0[ ]	/* SetRefPoint0 */
MDRP[00100]	/* MoveDirectRelPt */";
};
width = 1885;
}
);
note = barb5nw;
unicode = 229;
}
{
glyphname = barb5sw;
layers = (
{
layerId = m01;
shapes = (
{
closed = 1;
nodes = (
(1606,384,l),
(935,429,l),
(1708,1203,l),
(1373,1535,l),
(601,764,l),
(554,1433,l),
(115,994,l),
(173,0,l),
(1164,-58,l)
);
}
);
userData = {
assembly = "PUSHB[ ]	/* 3 values pushed */
4 3 3
PUSHW[ ]	/* 1 value pushed */
306
NPUSHB[ ]	/* 15 values pushed */
6 5 20 6 6 5 1 2 3 5 4 4 6 162 4
PUSHW[ ]	/* 1 value pushed */
309
NPUSHB[ ]	/* 9 values pushed */
0 0 4 5 6 8 4 7 3
PUSHW[ ]	/* 4 values pushed */
310 7 307 0
MDAP[1]	/* MoveDirectAbsPt */
MIRP[01101]	/* MoveIndirectRelPt */
MIRP[11101]	/* MoveIndirectRelPt */
SRP1[ ]	/* SetRefPoint1 */
SLOOP[ ]	/* SetLoopVariable */
IP[ ]	/* InterpolatePts */
SVTCA[0]	/* SetFreedomAndProjectionVectorToAxis */
MIAP[1]	/* MoveIndirectAbsPt */
MIRP[01101]	/* MoveIndirectRelPt */
MIRP[11101]	/* MoveIndirectRelPt */
SRP1[ ]	/* SetRefPoint1 */
SLOOP[ ]	/* SetLoopVariable */
IP[ ]	/* InterpolatePts */
IUP[1]	/* InterpolateUntPts */
IUP[0]	/* InterpolateUntPts */
SDPVTL[1]	/* SetDualPVectorToLine */
MDAP[0]	/* MoveDirectAbsPt */
CALL[ ]	/* CallFunction */
SFVTPV[ ]	/* SetFVectorToPVector */
RDTG[ ]	/* RoundDownToGrid */
SRP0[ ]	/* SetRefPoint0 */
MDRP[00100]	/* MoveDirectRelPt */";
};
width = 1885;
}
);
note = barb5sw;
unicode = 231;
}
{
glyphname = drawleft;
layers = (
{
guides = (
{
pos = (173,592);
}
);
layerId = m01;
shapes = (
{
closed = 1;
nodes = (
(543,1005,l),
(105,593,l),
(543,181,l)
);
}
);
userData = {
assembly = "PUSHB[ ]	/* 5 values pushed */
0 1 171 2 2
PUSHW[ ]	/* 4 values pushed */
267 0 -6 0
MDAP[1]	/* MoveDirectAbsPt */
SHPIX[ ]	/* ShiftZoneByPixel */
MIRP[10100]	/* MoveIndirectRelPt */
SVTCA[0]	/* SetFreedomAndProjectionVectorToAxis */
MDAP[1]	/* MoveDirectAbsPt */
MIRP[01101]	/* MoveIndirectRelPt */
IP[ ]	/* InterpolatePts */
IUP[1]	/* InterpolateUntPts */
IUP[0]	/* InterpolateUntPts */";
};
width = 543;
}
);
note = drawleft;
unicode = 233;
}
{
glyphname = drawdblleft;
layers = (
{
layerId = m01;
shapes = (
{
closed = 1;
nodes = (
(766,469,l),
(613,469,l),
(613,317,l),
(352,526,l),
(613,735,l),
(613,582,l),
(766,582,l),
(766,1052,l),
(107,526,l),
(766,0,l),
(766,0,l)
);
}
);
userData = {
assembly = "NPUSHB[ ]	/* 38 values pushed */
8 7 7 255 2 1 20 2 2 1 6 7 7 255 2 3 20 2 2 3 5 9 2 5 6 7 8 9 6 3 179 1 0 7 2 5 4 8
PUSHW[ ]	/* 6 values pushed */
256 1 311 2 -6 2
MDAP[1]	/* MoveDirectAbsPt */
SHPIX[ ]	/* ShiftZoneByPixel */
MIRP[10100]	/* MoveIndirectRelPt */
MIRP[01101]	/* MoveIndirectRelPt */
IP[ ]	/* InterpolatePts */
IP[ ]	/* InterpolatePts */
SRP1[ ]	/* SetRefPoint1 */
IP[ ]	/* InterpolatePts */
SVTCA[0]	/* SetFreedomAndProjectionVectorToAxis */
MIAP[1]	/* MoveIndirectAbsPt */
MIRP[01101]	/* MoveIndirectRelPt */
SLOOP[ ]	/* SetLoopVariable */
IP[ ]	/* InterpolatePts */
MDAP[1]	/* MoveDirectAbsPt */
MDAP[1]	/* MoveDirectAbsPt */
IUP[1]	/* InterpolateUntPts */
IUP[0]	/* InterpolateUntPts */
SDPVTL[1]	/* SetDualPVectorToLine */
SFVTPV[ ]	/* SetFVectorToPVector */
MDAP[0]	/* MoveDirectAbsPt */
CALL[ ]	/* CallFunction */
SFVTCA[0]	/* SetFVectorToAxis */
RDTG[ ]	/* RoundDownToGrid */
SRP0[ ]	/* SetRefPoint0 */
MDRP[00100]	/* MoveDirectRelPt */
SDPVTL[1]	/* SetDualPVectorToLine */
SFVTPV[ ]	/* SetFVectorToPVector */
MDAP[0]	/* MoveDirectAbsPt */
RTG[ ]	/* RoundToGrid */
CALL[ ]	/* CallFunction */
SFVTCA[0]	/* SetFVectorToAxis */
RDTG[ ]	/* RoundDownToGrid */
SRP0[ ]	/* SetRefPoint0 */
MDRP[00100]	/* MoveDirectRelPt */";
};
width = 766;
}
);
note = drawdblleft;
unicode = 237;
}
{
glyphname = drawdblup;
layers = (
{
layerId = m01;
shapes = (
{
closed = 1;
nodes = (
(560,-395,l),
(560,-242,l),
(408,-242,l),
(617,19,l),
(826,-242,l),
(673,-242,l),
(673,-395,l),
(1143,-395,l),
(617,264,l),
(91,-395,l),
(91,-395,l)
);
}
);
width = 1234;
}
);
note = drawdblup;
unicode = 239;
}
{
glyphname = .notdef;
layers = (
{
layerId = m01;
shapes = (
{
closed = 1;
nodes = (
(886,1444,l),
(138,1444,l),
(138,0,l),
(886,0,l),
(886,0,l)
);
},
{
closed = 1;
nodes = (
(774,1350,l),
(774,94,l),
(250,94,l),
(250,1350,l),
(250,1350,l)
);
}
);
userData = {
assembly = "NPUSHB[ ]	/* 17 values pushed */
7 93 1 4 93 1 237 0 0 4 103 0 5 103 3 212 0
MDAP[1]	/* MoveDirectAbsPt */
MIRP[11110]	/* MoveIndirectRelPt */
MIRP[01101]	/* MoveIndirectRelPt */
SRP0[ ]	/* SetRefPoint0 */
MIRP[01101]	/* MoveIndirectRelPt */
SVTCA[0]	/* SetFreedomAndProjectionVectorToAxis */
MIAP[1]	/* MoveIndirectAbsPt */
MIRP[01110]	/* MoveIndirectRelPt */
MIRP[01101]	/* MoveIndirectRelPt */
SRP0[ ]	/* SetRefPoint0 */
MIRP[01101]	/* MoveIndirectRelPt */
IUP[1]	/* InterpolateUntPts */
IUP[0]	/* InterpolateUntPts */";
};
width = 1024;
}
);
note = .notdef;
}
